<?xml version="1.0" encoding="UTF-8"?>
<svg width="136px" height="223px" viewBox="0 0 136 223" version="1.1" xmlns="http://www.w3.org/2000/svg" xmlns:xlink="http://www.w3.org/1999/xlink">
    <!-- Generator: Sketch 52.3 (67297) - http://www.bohemiancoding.com/sketch -->
    <title>Group</title>
    <desc>Created with Sketch.</desc>
    <g id="Page-1" stroke="none" stroke-width="1" fill="none" fill-rule="evenodd">
        <g id="Wireframe" transform="translate(-558.000000, -4698.000000)" fill-rule="nonzero">
            <g id="Group" transform="translate(557.000000, 4694.000000)">
                <polygon id="Rectangle" fill="#D6D6D6" transform="translate(68.933489, 147.611040) rotate(22.000000) translate(-68.933489, -147.611040) " points="22.223073 80.9257898 115.172064 81.2578873 115.643906 214.29629 22.6949146 213.964192"></polygon>
                <polygon id="Rectangle" fill="#D25151" transform="translate(68.244993, 149.332682) rotate(22.000000) translate(-68.244993, -149.332682) " points="21.6365081 111.387435 114.585499 111.719533 114.853479 187.277928 21.9044878 186.945831"></polygon>
                <polygon id="Triangle" fill="#FFF245" transform="translate(68.668214, 147.809250) rotate(22.000000) translate(-68.668214, -147.809250) " points="68.5531309 131.532856 97.8873277 164.085643 39.4491007 163.876849"></polygon>
                <ellipse id="Oval" fill="#4E4E4E" transform="translate(93.633279, 85.847133) rotate(22.000000) translate(-93.633279, -85.847133) " cx="93.6332787" cy="85.8471329" rx="46.4745051" ry="8.34555773"></ellipse>
                <ellipse id="Oval" fill="#D8D8D8" transform="translate(63.809162, 37.124402) rotate(22.000000) translate(-63.809162, -37.124402) " cx="63.8091622" cy="37.1244018" rx="12.6545602" ry="34.7661631"></ellipse>
            </g>
        </g>
    </g>
</svg>