<?xml version="1.0" encoding="UTF-8"?>
<svg width="137px" height="206px" viewBox="0 0 137 206" version="1.1" xmlns="http://www.w3.org/2000/svg" xmlns:xlink="http://www.w3.org/1999/xlink">
    <!-- Generator: Sketch 52.3 (67297) - http://www.bohemiancoding.com/sketch -->
    <title>Group 8</title>
    <desc>Created with Sketch.</desc>
    <g id="Page-1" stroke="none" stroke-width="1" fill="none" fill-rule="evenodd">
        <g id="Wireframe" transform="translate(-1847.000000, -4833.000000)" fill-rule="nonzero">
            <g id="Group-8" transform="translate(1904.666558, 4929.594047) rotate(-26.000000) translate(-1904.666558, -4929.594047) translate(1859.666558, 4819.594047)">
                <path d="M82.6399474,205.914786 C81.3939923,213.218794 65.0044516,219 44.9691358,219 C24.93382,219 8.54427929,213.218794 7.29832418,205.914786 L7.22222222,205.914786 L3.41060513e-13,85 L90,88.2095808 L82.7160494,205.914786 L82.6399474,205.914786 Z" id="Combined-Shape" stroke="#7A99B8" stroke-width="5" fill="#E9F8FF"></path>
                <path d="M90,86.5477272 C90,61.9446968 69.8528137,42 45,42 C20.1471863,42 1.8189894e-12,61.9446968 1.8189894e-12,86.5477272 C1.8189894e-12,111.150758 90,111.150758 90,86.5477272 Z" id="Oval" stroke="#7A99B8" stroke-width="5" fill="#E9F8FF"></path>
                <ellipse id="Oval" stroke="#7A99B8" stroke-width="5" fill="#E9F8FF" cx="45.5" cy="48.5" rx="14.5" ry="6.5"></ellipse>
                <rect id="Rectangle" fill="#2C9E6E" transform="translate(43.500000, 27.500000) rotate(-15.000000) translate(-43.500000, -27.500000) " x="40" y="1" width="7" height="53"></rect>
                <circle id="Oval" fill="#00A16A" cx="44" cy="147" r="30"></circle>
            </g>
        </g>
    </g>
</svg>