<?xml version="1.0" encoding="UTF-8"?>
<svg width="136px" height="223px" viewBox="0 0 136 223" version="1.1" xmlns="http://www.w3.org/2000/svg" xmlns:xlink="http://www.w3.org/1999/xlink">
    <!-- Generator: Sketch 52.3 (67297) - http://www.bohemiancoding.com/sketch -->
    <title>trash1</title>
    <desc>Created with Sketch.</desc>
    <g id="Page-1" stroke="none" stroke-width="1" fill="none" fill-rule="evenodd">
        <g id="trash1" transform="translate(67.000000, 109.500000) scale(-1, 1) translate(-67.000000, -109.500000) translate(-3.000000, -4.000000)">
            <polygon id="Rectangle" fill="#D6D6D6" transform="translate(68.933490, 147.611040) rotate(22.000000) translate(-68.933490, -147.611040) " points="22.223073 80.92579 115.172064 81.2578875 115.643906 214.29629 22.6949146 213.964192"></polygon>
            <polygon id="Rectangle" fill="#D25151" transform="translate(68.244994, 149.332682) rotate(22.000000) translate(-68.244994, -149.332682) " points="21.6365082 111.387435 114.585499 111.719533 114.853479 187.277928 21.9044879 186.945831"></polygon>
            <polygon id="Triangle" fill="#FFF245" transform="translate(68.668214, 147.809250) rotate(22.000000) translate(-68.668214, -147.809250) " points="68.5531311 131.532856 97.8873279 164.085643 39.4491009 163.876849"></polygon>
            <ellipse id="Oval" fill="#4E4E4E" transform="translate(93.633279, 85.847133) rotate(22.000000) translate(-93.633279, -85.847133) " cx="93.6332788" cy="85.8471328" rx="46.4745051" ry="8.34555773"></ellipse>
            <ellipse id="Oval" fill="#D8D8D8" transform="translate(63.809162, 37.124402) rotate(22.000000) translate(-63.809162, -37.124402) " cx="63.8091623" cy="37.1244019" rx="12.6545602" ry="34.7661631"></ellipse>
        </g>
    </g>
</svg>