<?xml version="1.0" encoding="UTF-8"?>
<svg width="2205px" height="29px" viewBox="0 0 2205 29" version="1.1" xmlns="http://www.w3.org/2000/svg" xmlns:xlink="http://www.w3.org/1999/xlink">
    <!-- Generator: Sketch 52.3 (67297) - http://www.bohemiancoding.com/sketch -->
    <title>Group 29</title>
    <desc>Created with Sketch.</desc>
    <g id="Page-1" stroke="none" stroke-width="1" fill="none" fill-rule="evenodd">
        <g id="Group-29" fill-rule="nonzero">
            <g id="Group-28">
                <g id="Group-26-Copy-44" transform="translate(30.000000, 14.500000) rotate(-83.000000) translate(-30.000000, -14.500000) translate(19.000000, -12.000000)">
                    <g id="Group-8">
                        <path d="M20.200876,49.8016603 C19.8963092,51.5869348 15.889977,53 10.9924554,53 C6.09493379,53 2.0886016,51.5869348 1.7840348,49.8016603 L1.7654321,49.8016603 L3.41060513e-13,20.247191 L22,21.0316894 L20.2194787,49.8016603 L20.200876,49.8016603 Z" id="Combined-Shape" stroke="#7A99B8" fill="#BDDEFF"></path>
                        <path d="M22,21.0718331 C22,15.0252884 17.0751322,10.1235955 11,10.1235955 C4.92486775,10.1235955 0,15.0252884 0,21.0718331 C0,27.1183777 22,27.1183777 22,21.0718331 Z" id="Oval" stroke="#7A99B8" fill="#BDDEFF"></path>
                        <ellipse id="Oval" stroke="#7A99B8" fill="#BDDEFF" cx="11.2972973" cy="11.6123596" rx="3.56756757" ry="1.48876404"></ellipse>
                        <rect id="Rectangle" fill="#2C9E6E" x="9.11556196" y="0.121869343" width="1.78378378" height="12.505618"></rect>
                        <ellipse id="Oval" fill="#00A16A" cx="11" cy="37.8146067" rx="7.43243243" ry="7.44382022"></ellipse>
                    </g>
                </g>
                <rect id="Rectangle" fill="#3272D0" x="0" y="0.352454732" width="63" height="28"></rect>
            </g>
            <g id="Group-28" transform="translate(63.000000, 0.000000)">
                <g id="Group-26-Copy-44" transform="translate(30.000000, 14.500000) rotate(-83.000000) translate(-30.000000, -14.500000) translate(19.000000, -12.000000)">
                    <g id="Group-8">
                        <path d="M20.200876,49.8016603 C19.8963092,51.5869348 15.889977,53 10.9924554,53 C6.09493379,53 2.0886016,51.5869348 1.7840348,49.8016603 L1.7654321,49.8016603 L3.41060513e-13,20.247191 L22,21.0316894 L20.2194787,49.8016603 L20.200876,49.8016603 Z" id="Combined-Shape" stroke="#7A99B8" fill="#BDDEFF"></path>
                        <path d="M22,21.0718331 C22,15.0252884 17.0751322,10.1235955 11,10.1235955 C4.92486775,10.1235955 0,15.0252884 0,21.0718331 C0,27.1183777 22,27.1183777 22,21.0718331 Z" id="Oval" stroke="#7A99B8" fill="#BDDEFF"></path>
                        <ellipse id="Oval" stroke="#7A99B8" fill="#BDDEFF" cx="11.2972973" cy="11.6123596" rx="3.56756757" ry="1.48876404"></ellipse>
                        <rect id="Rectangle" fill="#2C9E6E" x="9.11556196" y="0.121869343" width="1.78378378" height="12.505618"></rect>
                        <ellipse id="Oval" fill="#00A16A" cx="11" cy="37.8146067" rx="7.43243243" ry="7.44382022"></ellipse>
                    </g>
                </g>
                <rect id="Rectangle" fill="#3272D0" x="0" y="1.35245473" width="63" height="27"></rect>
            </g>
            <g id="Group-28" transform="translate(126.000000, 0.000000)">
                <g id="Group-26-Copy-44" transform="translate(30.000000, 14.500000) rotate(-83.000000) translate(-30.000000, -14.500000) translate(19.000000, -12.000000)">
                    <g id="Group-8">
                        <path d="M20.200876,49.8016603 C19.8963092,51.5869348 15.889977,53 10.9924554,53 C6.09493379,53 2.0886016,51.5869348 1.7840348,49.8016603 L1.7654321,49.8016603 L3.41060513e-13,20.247191 L22,21.0316894 L20.2194787,49.8016603 L20.200876,49.8016603 Z" id="Combined-Shape" stroke="#7A99B8" fill="#BDDEFF"></path>
                        <path d="M22,21.0718331 C22,15.0252884 17.0751322,10.1235955 11,10.1235955 C4.92486775,10.1235955 0,15.0252884 0,21.0718331 C0,27.1183777 22,27.1183777 22,21.0718331 Z" id="Oval" stroke="#7A99B8" fill="#BDDEFF"></path>
                        <ellipse id="Oval" stroke="#7A99B8" fill="#BDDEFF" cx="11.2972973" cy="11.6123596" rx="3.56756757" ry="1.48876404"></ellipse>
                        <rect id="Rectangle" fill="#2C9E6E" x="9.11556196" y="0.121869343" width="1.78378378" height="12.505618"></rect>
                        <ellipse id="Oval" fill="#00A16A" cx="11" cy="37.8146067" rx="7.43243243" ry="7.44382022"></ellipse>
                    </g>
                </g>
                <rect id="Rectangle" fill="#3272D0" x="0" y="2.35245473" width="63" height="26"></rect>
            </g>
            <g id="Group-28-Copy" transform="translate(189.000000, 0.000000)">
                <g id="Group-26-Copy-53" transform="translate(30.000000, 14.500000) rotate(-83.000000) translate(-30.000000, -14.500000) translate(19.000000, -12.000000)">
                    <g id="Group-8">
                        <path d="M20.200876,49.8016603 C19.8963092,51.5869348 15.889977,53 10.9924554,53 C6.09493379,53 2.0886016,51.5869348 1.7840348,49.8016603 L1.7654321,49.8016603 L3.41060513e-13,20.247191 L22,21.0316894 L20.2194787,49.8016603 L20.200876,49.8016603 Z" id="Combined-Shape" stroke="#7A99B8" fill="#BDDEFF"></path>
                        <path d="M22,21.0718331 C22,15.0252884 17.0751322,10.1235955 11,10.1235955 C4.92486775,10.1235955 0,15.0252884 0,21.0718331 C0,27.1183777 22,27.1183777 22,21.0718331 Z" id="Oval" stroke="#7A99B8" fill="#BDDEFF"></path>
                        <ellipse id="Oval" stroke="#7A99B8" fill="#BDDEFF" cx="11.2972973" cy="11.6123596" rx="3.56756757" ry="1.48876404"></ellipse>
                        <rect id="Rectangle" fill="#2C9E6E" x="9.11556196" y="0.121869343" width="1.78378378" height="12.505618"></rect>
                        <ellipse id="Oval" fill="#00A16A" cx="11" cy="37.8146067" rx="7.43243243" ry="7.44382022"></ellipse>
                    </g>
                </g>
                <rect id="Rectangle" fill="#3272D0" x="0" y="3.35245473" width="63" height="25"></rect>
            </g>
            <g id="Group-28-Copy-2" transform="translate(252.000000, 0.000000)">
                <g id="Group-26-Copy-54" transform="translate(30.000000, 14.500000) rotate(-83.000000) translate(-30.000000, -14.500000) translate(19.000000, -12.000000)">
                    <g id="Group-8">
                        <path d="M20.200876,49.8016603 C19.8963092,51.5869348 15.889977,53 10.9924554,53 C6.09493379,53 2.0886016,51.5869348 1.7840348,49.8016603 L1.7654321,49.8016603 L3.41060513e-13,20.247191 L22,21.0316894 L20.2194787,49.8016603 L20.200876,49.8016603 Z" id="Combined-Shape" stroke="#7A99B8" fill="#BDDEFF"></path>
                        <path d="M22,21.0718331 C22,15.0252884 17.0751322,10.1235955 11,10.1235955 C4.92486775,10.1235955 0,15.0252884 0,21.0718331 C0,27.1183777 22,27.1183777 22,21.0718331 Z" id="Oval" stroke="#7A99B8" fill="#BDDEFF"></path>
                        <ellipse id="Oval" stroke="#7A99B8" fill="#BDDEFF" cx="11.2972973" cy="11.6123596" rx="3.56756757" ry="1.48876404"></ellipse>
                        <rect id="Rectangle" fill="#2C9E6E" x="9.11556196" y="0.121869343" width="1.78378378" height="12.505618"></rect>
                        <ellipse id="Oval" fill="#00A16A" cx="11" cy="37.8146067" rx="7.43243243" ry="7.44382022"></ellipse>
                    </g>
                </g>
                <rect id="Rectangle" fill="#3272D0" x="0" y="4.35245473" width="63" height="24"></rect>
            </g>
            <g id="Group-28-Copy-3" transform="translate(315.000000, 0.000000)">
                <g id="Group-26-Copy-55" transform="translate(30.000000, 14.500000) rotate(-83.000000) translate(-30.000000, -14.500000) translate(19.000000, -12.000000)">
                    <g id="Group-8">
                        <path d="M20.200876,49.8016603 C19.8963092,51.5869348 15.889977,53 10.9924554,53 C6.09493379,53 2.0886016,51.5869348 1.7840348,49.8016603 L1.7654321,49.8016603 L3.41060513e-13,20.247191 L22,21.0316894 L20.2194787,49.8016603 L20.200876,49.8016603 Z" id="Combined-Shape" stroke="#7A99B8" fill="#BDDEFF"></path>
                        <path d="M22,21.0718331 C22,15.0252884 17.0751322,10.1235955 11,10.1235955 C4.92486775,10.1235955 0,15.0252884 0,21.0718331 C0,27.1183777 22,27.1183777 22,21.0718331 Z" id="Oval" stroke="#7A99B8" fill="#BDDEFF"></path>
                        <ellipse id="Oval" stroke="#7A99B8" fill="#BDDEFF" cx="11.2972973" cy="11.6123596" rx="3.56756757" ry="1.48876404"></ellipse>
                        <rect id="Rectangle" fill="#2C9E6E" x="9.11556196" y="0.121869343" width="1.78378378" height="12.505618"></rect>
                        <ellipse id="Oval" fill="#00A16A" cx="11" cy="37.8146067" rx="7.43243243" ry="7.44382022"></ellipse>
                    </g>
                </g>
                <rect id="Rectangle" fill="#3272D0" x="0" y="5.35245473" width="63" height="23"></rect>
            </g>
            <g id="Group-28-Copy-4" transform="translate(378.000000, 0.000000)">
                <g id="Group-26-Copy-56" transform="translate(30.000000, 14.500000) rotate(-83.000000) translate(-30.000000, -14.500000) translate(19.000000, -12.000000)">
                    <g id="Group-8">
                        <path d="M20.200876,49.8016603 C19.8963092,51.5869348 15.889977,53 10.9924554,53 C6.09493379,53 2.0886016,51.5869348 1.7840348,49.8016603 L1.7654321,49.8016603 L3.41060513e-13,20.247191 L22,21.0316894 L20.2194787,49.8016603 L20.200876,49.8016603 Z" id="Combined-Shape" stroke="#7A99B8" fill="#BDDEFF"></path>
                        <path d="M22,21.0718331 C22,15.0252884 17.0751322,10.1235955 11,10.1235955 C4.92486775,10.1235955 0,15.0252884 0,21.0718331 C0,27.1183777 22,27.1183777 22,21.0718331 Z" id="Oval" stroke="#7A99B8" fill="#BDDEFF"></path>
                        <ellipse id="Oval" stroke="#7A99B8" fill="#BDDEFF" cx="11.2972973" cy="11.6123596" rx="3.56756757" ry="1.48876404"></ellipse>
                        <rect id="Rectangle" fill="#2C9E6E" x="9.11556196" y="0.121869343" width="1.78378378" height="12.505618"></rect>
                        <ellipse id="Oval" fill="#00A16A" cx="11" cy="37.8146067" rx="7.43243243" ry="7.44382022"></ellipse>
                    </g>
                </g>
                <rect id="Rectangle" fill="#3272D0" x="0" y="6.35245473" width="63" height="22"></rect>
            </g>
            <g id="Group-28-Copy-5" transform="translate(441.000000, 0.000000)">
                <g id="Group-26-Copy-57" transform="translate(30.000000, 14.500000) rotate(-83.000000) translate(-30.000000, -14.500000) translate(19.000000, -12.000000)">
                    <g id="Group-8">
                        <path d="M20.200876,49.8016603 C19.8963092,51.5869348 15.889977,53 10.9924554,53 C6.09493379,53 2.0886016,51.5869348 1.7840348,49.8016603 L1.7654321,49.8016603 L3.41060513e-13,20.247191 L22,21.0316894 L20.2194787,49.8016603 L20.200876,49.8016603 Z" id="Combined-Shape" stroke="#7A99B8" fill="#BDDEFF"></path>
                        <path d="M22,21.0718331 C22,15.0252884 17.0751322,10.1235955 11,10.1235955 C4.92486775,10.1235955 0,15.0252884 0,21.0718331 C0,27.1183777 22,27.1183777 22,21.0718331 Z" id="Oval" stroke="#7A99B8" fill="#BDDEFF"></path>
                        <ellipse id="Oval" stroke="#7A99B8" fill="#BDDEFF" cx="11.2972973" cy="11.6123596" rx="3.56756757" ry="1.48876404"></ellipse>
                        <rect id="Rectangle" fill="#2C9E6E" x="9.11556196" y="0.121869343" width="1.78378378" height="12.505618"></rect>
                        <ellipse id="Oval" fill="#00A16A" cx="11" cy="37.8146067" rx="7.43243243" ry="7.44382022"></ellipse>
                    </g>
                </g>
                <rect id="Rectangle" fill="#3272D0" x="0" y="7.35245473" width="63" height="21"></rect>
            </g>
            <g id="Group-28-Copy-6" transform="translate(504.000000, 0.000000)">
                <g id="Group-26-Copy-58" transform="translate(30.000000, 14.500000) rotate(-83.000000) translate(-30.000000, -14.500000) translate(19.000000, -12.000000)">
                    <g id="Group-8">
                        <path d="M20.200876,49.8016603 C19.8963092,51.5869348 15.889977,53 10.9924554,53 C6.09493379,53 2.0886016,51.5869348 1.7840348,49.8016603 L1.7654321,49.8016603 L3.41060513e-13,20.247191 L22,21.0316894 L20.2194787,49.8016603 L20.200876,49.8016603 Z" id="Combined-Shape" stroke="#7A99B8" fill="#BDDEFF"></path>
                        <path d="M22,21.0718331 C22,15.0252884 17.0751322,10.1235955 11,10.1235955 C4.92486775,10.1235955 0,15.0252884 0,21.0718331 C0,27.1183777 22,27.1183777 22,21.0718331 Z" id="Oval" stroke="#7A99B8" fill="#BDDEFF"></path>
                        <ellipse id="Oval" stroke="#7A99B8" fill="#BDDEFF" cx="11.2972973" cy="11.6123596" rx="3.56756757" ry="1.48876404"></ellipse>
                        <rect id="Rectangle" fill="#2C9E6E" x="9.11556196" y="0.121869343" width="1.78378378" height="12.505618"></rect>
                        <ellipse id="Oval" fill="#00A16A" cx="11" cy="37.8146067" rx="7.43243243" ry="7.44382022"></ellipse>
                    </g>
                </g>
                <rect id="Rectangle" fill="#3272D0" x="0" y="8.35245473" width="63" height="20"></rect>
            </g>
            <g id="Group-28-Copy-7" transform="translate(567.000000, 0.000000)">
                <g id="Group-26-Copy-59" transform="translate(30.000000, 14.500000) rotate(-83.000000) translate(-30.000000, -14.500000) translate(19.000000, -12.000000)">
                    <g id="Group-8">
                        <path d="M20.200876,49.8016603 C19.8963092,51.5869348 15.889977,53 10.9924554,53 C6.09493379,53 2.0886016,51.5869348 1.7840348,49.8016603 L1.7654321,49.8016603 L3.41060513e-13,20.247191 L22,21.0316894 L20.2194787,49.8016603 L20.200876,49.8016603 Z" id="Combined-Shape" stroke="#7A99B8" fill="#BDDEFF"></path>
                        <path d="M22,21.0718331 C22,15.0252884 17.0751322,10.1235955 11,10.1235955 C4.92486775,10.1235955 0,15.0252884 0,21.0718331 C0,27.1183777 22,27.1183777 22,21.0718331 Z" id="Oval" stroke="#7A99B8" fill="#BDDEFF"></path>
                        <ellipse id="Oval" stroke="#7A99B8" fill="#BDDEFF" cx="11.2972973" cy="11.6123596" rx="3.56756757" ry="1.48876404"></ellipse>
                        <rect id="Rectangle" fill="#2C9E6E" x="9.11556196" y="0.121869343" width="1.78378378" height="12.505618"></rect>
                        <ellipse id="Oval" fill="#00A16A" cx="11" cy="37.8146067" rx="7.43243243" ry="7.44382022"></ellipse>
                    </g>
                </g>
                <rect id="Rectangle" fill="#3272D0" x="0" y="9.35245473" width="63" height="19"></rect>
            </g>
            <g id="Group-28-Copy-8" transform="translate(630.000000, 0.000000)">
                <g id="Group-26-Copy-60" transform="translate(30.000000, 14.500000) rotate(-83.000000) translate(-30.000000, -14.500000) translate(19.000000, -12.000000)">
                    <g id="Group-8">
                        <path d="M20.200876,49.8016603 C19.8963092,51.5869348 15.889977,53 10.9924554,53 C6.09493379,53 2.0886016,51.5869348 1.7840348,49.8016603 L1.7654321,49.8016603 L3.41060513e-13,20.247191 L22,21.0316894 L20.2194787,49.8016603 L20.200876,49.8016603 Z" id="Combined-Shape" stroke="#7A99B8" fill="#BDDEFF"></path>
                        <path d="M22,21.0718331 C22,15.0252884 17.0751322,10.1235955 11,10.1235955 C4.92486775,10.1235955 0,15.0252884 0,21.0718331 C0,27.1183777 22,27.1183777 22,21.0718331 Z" id="Oval" stroke="#7A99B8" fill="#BDDEFF"></path>
                        <ellipse id="Oval" stroke="#7A99B8" fill="#BDDEFF" cx="11.2972973" cy="11.6123596" rx="3.56756757" ry="1.48876404"></ellipse>
                        <rect id="Rectangle" fill="#2C9E6E" x="9.11556196" y="0.121869343" width="1.78378378" height="12.505618"></rect>
                        <ellipse id="Oval" fill="#00A16A" cx="11" cy="37.8146067" rx="7.43243243" ry="7.44382022"></ellipse>
                    </g>
                </g>
                <rect id="Rectangle" fill="#3272D0" x="0" y="10.3524547" width="63" height="18"></rect>
            </g>
            <g id="Group-28-Copy-9" transform="translate(693.000000, 0.000000)">
                <g id="Group-26-Copy-61" transform="translate(30.000000, 14.500000) rotate(-83.000000) translate(-30.000000, -14.500000) translate(19.000000, -12.000000)">
                    <g id="Group-8">
                        <path d="M20.200876,49.8016603 C19.8963092,51.5869348 15.889977,53 10.9924554,53 C6.09493379,53 2.0886016,51.5869348 1.7840348,49.8016603 L1.7654321,49.8016603 L3.41060513e-13,20.247191 L22,21.0316894 L20.2194787,49.8016603 L20.200876,49.8016603 Z" id="Combined-Shape" stroke="#7A99B8" fill="#BDDEFF"></path>
                        <path d="M22,21.0718331 C22,15.0252884 17.0751322,10.1235955 11,10.1235955 C4.92486775,10.1235955 0,15.0252884 0,21.0718331 C0,27.1183777 22,27.1183777 22,21.0718331 Z" id="Oval" stroke="#7A99B8" fill="#BDDEFF"></path>
                        <ellipse id="Oval" stroke="#7A99B8" fill="#BDDEFF" cx="11.2972973" cy="11.6123596" rx="3.56756757" ry="1.48876404"></ellipse>
                        <rect id="Rectangle" fill="#2C9E6E" x="9.11556196" y="0.121869343" width="1.78378378" height="12.505618"></rect>
                        <ellipse id="Oval" fill="#00A16A" cx="11" cy="37.8146067" rx="7.43243243" ry="7.44382022"></ellipse>
                    </g>
                </g>
                <rect id="Rectangle" fill="#3272D0" x="0" y="11.3524547" width="63" height="17"></rect>
            </g>
            <g id="Group-28-Copy-10" transform="translate(756.000000, 0.000000)">
                <g id="Group-26-Copy-62" transform="translate(30.000000, 14.500000) rotate(-83.000000) translate(-30.000000, -14.500000) translate(19.000000, -12.000000)">
                    <g id="Group-8">
                        <path d="M20.200876,49.8016603 C19.8963092,51.5869348 15.889977,53 10.9924554,53 C6.09493379,53 2.0886016,51.5869348 1.7840348,49.8016603 L1.7654321,49.8016603 L3.41060513e-13,20.247191 L22,21.0316894 L20.2194787,49.8016603 L20.200876,49.8016603 Z" id="Combined-Shape" stroke="#7A99B8" fill="#BDDEFF"></path>
                        <path d="M22,21.0718331 C22,15.0252884 17.0751322,10.1235955 11,10.1235955 C4.92486775,10.1235955 0,15.0252884 0,21.0718331 C0,27.1183777 22,27.1183777 22,21.0718331 Z" id="Oval" stroke="#7A99B8" fill="#BDDEFF"></path>
                        <ellipse id="Oval" stroke="#7A99B8" fill="#BDDEFF" cx="11.2972973" cy="11.6123596" rx="3.56756757" ry="1.48876404"></ellipse>
                        <rect id="Rectangle" fill="#2C9E6E" x="9.11556196" y="0.121869343" width="1.78378378" height="12.505618"></rect>
                        <ellipse id="Oval" fill="#00A16A" cx="11" cy="37.8146067" rx="7.43243243" ry="7.44382022"></ellipse>
                    </g>
                </g>
                <rect id="Rectangle" fill="#3272D0" x="0" y="12.3524547" width="63" height="16"></rect>
            </g>
            <g id="Group-28-Copy-11" transform="translate(819.000000, 0.000000)">
                <g id="Group-26-Copy-63" transform="translate(30.000000, 14.500000) rotate(-83.000000) translate(-30.000000, -14.500000) translate(19.000000, -12.000000)">
                    <g id="Group-8">
                        <path d="M20.200876,49.8016603 C19.8963092,51.5869348 15.889977,53 10.9924554,53 C6.09493379,53 2.0886016,51.5869348 1.7840348,49.8016603 L1.7654321,49.8016603 L3.41060513e-13,20.247191 L22,21.0316894 L20.2194787,49.8016603 L20.200876,49.8016603 Z" id="Combined-Shape" stroke="#7A99B8" fill="#BDDEFF"></path>
                        <path d="M22,21.0718331 C22,15.0252884 17.0751322,10.1235955 11,10.1235955 C4.92486775,10.1235955 0,15.0252884 0,21.0718331 C0,27.1183777 22,27.1183777 22,21.0718331 Z" id="Oval" stroke="#7A99B8" fill="#BDDEFF"></path>
                        <ellipse id="Oval" stroke="#7A99B8" fill="#BDDEFF" cx="11.2972973" cy="11.6123596" rx="3.56756757" ry="1.48876404"></ellipse>
                        <rect id="Rectangle" fill="#2C9E6E" x="9.11556196" y="0.121869343" width="1.78378378" height="12.505618"></rect>
                        <ellipse id="Oval" fill="#00A16A" cx="11" cy="37.8146067" rx="7.43243243" ry="7.44382022"></ellipse>
                    </g>
                </g>
                <rect id="Rectangle" fill="#3272D0" x="0" y="13.3524547" width="63" height="15"></rect>
            </g>
            <g id="Group-28-Copy-12" transform="translate(882.000000, 0.000000)">
                <g id="Group-26-Copy-64" transform="translate(30.000000, 14.500000) rotate(-83.000000) translate(-30.000000, -14.500000) translate(19.000000, -12.000000)">
                    <g id="Group-8">
                        <path d="M20.200876,49.8016603 C19.8963092,51.5869348 15.889977,53 10.9924554,53 C6.09493379,53 2.0886016,51.5869348 1.7840348,49.8016603 L1.7654321,49.8016603 L3.41060513e-13,20.247191 L22,21.0316894 L20.2194787,49.8016603 L20.200876,49.8016603 Z" id="Combined-Shape" stroke="#7A99B8" fill="#BDDEFF"></path>
                        <path d="M22,21.0718331 C22,15.0252884 17.0751322,10.1235955 11,10.1235955 C4.92486775,10.1235955 0,15.0252884 0,21.0718331 C0,27.1183777 22,27.1183777 22,21.0718331 Z" id="Oval" stroke="#7A99B8" fill="#BDDEFF"></path>
                        <ellipse id="Oval" stroke="#7A99B8" fill="#BDDEFF" cx="11.2972973" cy="11.6123596" rx="3.56756757" ry="1.48876404"></ellipse>
                        <rect id="Rectangle" fill="#2C9E6E" x="9.11556196" y="0.121869343" width="1.78378378" height="12.505618"></rect>
                        <ellipse id="Oval" fill="#00A16A" cx="11" cy="37.8146067" rx="7.43243243" ry="7.44382022"></ellipse>
                    </g>
                </g>
                <rect id="Rectangle" fill="#3272D0" x="0" y="14.3524547" width="63" height="14"></rect>
            </g>
            <g id="Group-28-Copy-13" transform="translate(945.000000, 0.000000)">
                <g id="Group-26-Copy-65" transform="translate(30.000000, 14.500000) rotate(-83.000000) translate(-30.000000, -14.500000) translate(19.000000, -12.000000)">
                    <g id="Group-8">
                        <path d="M20.200876,49.8016603 C19.8963092,51.5869348 15.889977,53 10.9924554,53 C6.09493379,53 2.0886016,51.5869348 1.7840348,49.8016603 L1.7654321,49.8016603 L3.41060513e-13,20.247191 L22,21.0316894 L20.2194787,49.8016603 L20.200876,49.8016603 Z" id="Combined-Shape" stroke="#7A99B8" fill="#BDDEFF"></path>
                        <path d="M22,21.0718331 C22,15.0252884 17.0751322,10.1235955 11,10.1235955 C4.92486775,10.1235955 0,15.0252884 0,21.0718331 C0,27.1183777 22,27.1183777 22,21.0718331 Z" id="Oval" stroke="#7A99B8" fill="#BDDEFF"></path>
                        <ellipse id="Oval" stroke="#7A99B8" fill="#BDDEFF" cx="11.2972973" cy="11.6123596" rx="3.56756757" ry="1.48876404"></ellipse>
                        <rect id="Rectangle" fill="#2C9E6E" x="9.11556196" y="0.121869343" width="1.78378378" height="12.505618"></rect>
                        <ellipse id="Oval" fill="#00A16A" cx="11" cy="37.8146067" rx="7.43243243" ry="7.44382022"></ellipse>
                    </g>
                </g>
                <rect id="Rectangle" fill="#3272D0" x="0" y="15.3524547" width="63" height="13"></rect>
            </g>
            <g id="Group-28-Copy-14" transform="translate(1008.000000, 0.000000)">
                <g id="Group-26-Copy-66" transform="translate(30.000000, 14.500000) rotate(-83.000000) translate(-30.000000, -14.500000) translate(19.000000, -12.000000)">
                    <g id="Group-8">
                        <path d="M20.200876,49.8016603 C19.8963092,51.5869348 15.889977,53 10.9924554,53 C6.09493379,53 2.0886016,51.5869348 1.7840348,49.8016603 L1.7654321,49.8016603 L3.41060513e-13,20.247191 L22,21.0316894 L20.2194787,49.8016603 L20.200876,49.8016603 Z" id="Combined-Shape" stroke="#7A99B8" fill="#BDDEFF"></path>
                        <path d="M22,21.0718331 C22,15.0252884 17.0751322,10.1235955 11,10.1235955 C4.92486775,10.1235955 0,15.0252884 0,21.0718331 C0,27.1183777 22,27.1183777 22,21.0718331 Z" id="Oval" stroke="#7A99B8" fill="#BDDEFF"></path>
                        <ellipse id="Oval" stroke="#7A99B8" fill="#BDDEFF" cx="11.2972973" cy="11.6123596" rx="3.56756757" ry="1.48876404"></ellipse>
                        <rect id="Rectangle" fill="#2C9E6E" x="9.11556196" y="0.121869343" width="1.78378378" height="12.505618"></rect>
                        <ellipse id="Oval" fill="#00A16A" cx="11" cy="37.8146067" rx="7.43243243" ry="7.44382022"></ellipse>
                    </g>
                </g>
                <rect id="Rectangle" fill="#3272D0" x="0" y="16.3524547" width="63" height="12"></rect>
            </g>
            <g id="Group-28-Copy-15" transform="translate(1071.000000, 0.000000)">
                <g id="Group-26-Copy-67" transform="translate(30.000000, 14.500000) rotate(-83.000000) translate(-30.000000, -14.500000) translate(19.000000, -12.000000)">
                    <g id="Group-8">
                        <path d="M20.200876,49.8016603 C19.8963092,51.5869348 15.889977,53 10.9924554,53 C6.09493379,53 2.0886016,51.5869348 1.7840348,49.8016603 L1.7654321,49.8016603 L3.41060513e-13,20.247191 L22,21.0316894 L20.2194787,49.8016603 L20.200876,49.8016603 Z" id="Combined-Shape" stroke="#7A99B8" fill="#BDDEFF"></path>
                        <path d="M22,21.0718331 C22,15.0252884 17.0751322,10.1235955 11,10.1235955 C4.92486775,10.1235955 0,15.0252884 0,21.0718331 C0,27.1183777 22,27.1183777 22,21.0718331 Z" id="Oval" stroke="#7A99B8" fill="#BDDEFF"></path>
                        <ellipse id="Oval" stroke="#7A99B8" fill="#BDDEFF" cx="11.2972973" cy="11.6123596" rx="3.56756757" ry="1.48876404"></ellipse>
                        <rect id="Rectangle" fill="#2C9E6E" x="9.11556196" y="0.121869343" width="1.78378378" height="12.505618"></rect>
                        <ellipse id="Oval" fill="#00A16A" cx="11" cy="37.8146067" rx="7.43243243" ry="7.44382022"></ellipse>
                    </g>
                </g>
                <rect id="Rectangle" fill="#3272D0" x="0" y="17.3524547" width="63" height="11"></rect>
            </g>
            <g id="Group-28-Copy-16" transform="translate(1134.000000, 0.000000)">
                <g id="Group-26-Copy-68" transform="translate(30.000000, 14.500000) rotate(-83.000000) translate(-30.000000, -14.500000) translate(19.000000, -12.000000)">
                    <g id="Group-8">
                        <path d="M20.200876,49.8016603 C19.8963092,51.5869348 15.889977,53 10.9924554,53 C6.09493379,53 2.0886016,51.5869348 1.7840348,49.8016603 L1.7654321,49.8016603 L3.41060513e-13,20.247191 L22,21.0316894 L20.2194787,49.8016603 L20.200876,49.8016603 Z" id="Combined-Shape" stroke="#7A99B8" fill="#BDDEFF"></path>
                        <path d="M22,21.0718331 C22,15.0252884 17.0751322,10.1235955 11,10.1235955 C4.92486775,10.1235955 0,15.0252884 0,21.0718331 C0,27.1183777 22,27.1183777 22,21.0718331 Z" id="Oval" stroke="#7A99B8" fill="#BDDEFF"></path>
                        <ellipse id="Oval" stroke="#7A99B8" fill="#BDDEFF" cx="11.2972973" cy="11.6123596" rx="3.56756757" ry="1.48876404"></ellipse>
                        <rect id="Rectangle" fill="#2C9E6E" x="9.11556196" y="0.121869343" width="1.78378378" height="12.505618"></rect>
                        <ellipse id="Oval" fill="#00A16A" cx="11" cy="37.8146067" rx="7.43243243" ry="7.44382022"></ellipse>
                    </g>
                </g>
                <rect id="Rectangle" fill="#3272D0" x="0" y="18.3524547" width="63" height="10"></rect>
            </g>
            <g id="Group-28-Copy-17" transform="translate(1197.000000, 0.000000)">
                <g id="Group-26-Copy-69" transform="translate(30.000000, 14.500000) rotate(-83.000000) translate(-30.000000, -14.500000) translate(19.000000, -12.000000)">
                    <g id="Group-8">
                        <path d="M20.200876,49.8016603 C19.8963092,51.5869348 15.889977,53 10.9924554,53 C6.09493379,53 2.0886016,51.5869348 1.7840348,49.8016603 L1.7654321,49.8016603 L3.41060513e-13,20.247191 L22,21.0316894 L20.2194787,49.8016603 L20.200876,49.8016603 Z" id="Combined-Shape" stroke="#7A99B8" fill="#BDDEFF"></path>
                        <path d="M22,21.0718331 C22,15.0252884 17.0751322,10.1235955 11,10.1235955 C4.92486775,10.1235955 0,15.0252884 0,21.0718331 C0,27.1183777 22,27.1183777 22,21.0718331 Z" id="Oval" stroke="#7A99B8" fill="#BDDEFF"></path>
                        <ellipse id="Oval" stroke="#7A99B8" fill="#BDDEFF" cx="11.2972973" cy="11.6123596" rx="3.56756757" ry="1.48876404"></ellipse>
                        <rect id="Rectangle" fill="#2C9E6E" x="9.11556196" y="0.121869343" width="1.78378378" height="12.505618"></rect>
                        <ellipse id="Oval" fill="#00A16A" cx="11" cy="37.8146067" rx="7.43243243" ry="7.44382022"></ellipse>
                    </g>
                </g>
                <rect id="Rectangle" fill="#3272D0" x="0" y="19.3524547" width="63" height="9"></rect>
            </g>
            <g id="Group-28-Copy-18" transform="translate(1260.000000, 0.000000)">
                <g id="Group-26-Copy-70" transform="translate(30.000000, 14.500000) rotate(-83.000000) translate(-30.000000, -14.500000) translate(19.000000, -12.000000)">
                    <g id="Group-8">
                        <path d="M20.200876,49.8016603 C19.8963092,51.5869348 15.889977,53 10.9924554,53 C6.09493379,53 2.0886016,51.5869348 1.7840348,49.8016603 L1.7654321,49.8016603 L3.41060513e-13,20.247191 L22,21.0316894 L20.2194787,49.8016603 L20.200876,49.8016603 Z" id="Combined-Shape" stroke="#7A99B8" fill="#BDDEFF"></path>
                        <path d="M22,21.0718331 C22,15.0252884 17.0751322,10.1235955 11,10.1235955 C4.92486775,10.1235955 0,15.0252884 0,21.0718331 C0,27.1183777 22,27.1183777 22,21.0718331 Z" id="Oval" stroke="#7A99B8" fill="#BDDEFF"></path>
                        <ellipse id="Oval" stroke="#7A99B8" fill="#BDDEFF" cx="11.2972973" cy="11.6123596" rx="3.56756757" ry="1.48876404"></ellipse>
                        <rect id="Rectangle" fill="#2C9E6E" x="9.11556196" y="0.121869343" width="1.78378378" height="12.505618"></rect>
                        <ellipse id="Oval" fill="#00A16A" cx="11" cy="37.8146067" rx="7.43243243" ry="7.44382022"></ellipse>
                    </g>
                </g>
                <rect id="Rectangle" fill="#3272D0" x="0" y="20.3524547" width="63" height="8"></rect>
            </g>
            <g id="Group-28-Copy-19" transform="translate(1323.000000, 0.000000)">
                <g id="Group-26-Copy-71" transform="translate(30.000000, 14.500000) rotate(-83.000000) translate(-30.000000, -14.500000) translate(19.000000, -12.000000)">
                    <g id="Group-8">
                        <path d="M20.200876,49.8016603 C19.8963092,51.5869348 15.889977,53 10.9924554,53 C6.09493379,53 2.0886016,51.5869348 1.7840348,49.8016603 L1.7654321,49.8016603 L3.41060513e-13,20.247191 L22,21.0316894 L20.2194787,49.8016603 L20.200876,49.8016603 Z" id="Combined-Shape" stroke="#7A99B8" fill="#BDDEFF"></path>
                        <path d="M22,21.0718331 C22,15.0252884 17.0751322,10.1235955 11,10.1235955 C4.92486775,10.1235955 0,15.0252884 0,21.0718331 C0,27.1183777 22,27.1183777 22,21.0718331 Z" id="Oval" stroke="#7A99B8" fill="#BDDEFF"></path>
                        <ellipse id="Oval" stroke="#7A99B8" fill="#BDDEFF" cx="11.2972973" cy="11.6123596" rx="3.56756757" ry="1.48876404"></ellipse>
                        <rect id="Rectangle" fill="#2C9E6E" x="9.11556196" y="0.121869343" width="1.78378378" height="12.505618"></rect>
                        <ellipse id="Oval" fill="#00A16A" cx="11" cy="37.8146067" rx="7.43243243" ry="7.44382022"></ellipse>
                    </g>
                </g>
                <rect id="Rectangle" fill="#3272D0" x="0" y="21.3524547" width="63" height="7"></rect>
            </g>
            <g id="Group-28-Copy-20" transform="translate(1386.000000, 0.000000)">
                <g id="Group-26-Copy-72" transform="translate(30.000000, 14.500000) rotate(-83.000000) translate(-30.000000, -14.500000) translate(19.000000, -12.000000)">
                    <g id="Group-8">
                        <path d="M20.200876,49.8016603 C19.8963092,51.5869348 15.889977,53 10.9924554,53 C6.09493379,53 2.0886016,51.5869348 1.7840348,49.8016603 L1.7654321,49.8016603 L3.41060513e-13,20.247191 L22,21.0316894 L20.2194787,49.8016603 L20.200876,49.8016603 Z" id="Combined-Shape" stroke="#7A99B8" fill="#BDDEFF"></path>
                        <path d="M22,21.0718331 C22,15.0252884 17.0751322,10.1235955 11,10.1235955 C4.92486775,10.1235955 0,15.0252884 0,21.0718331 C0,27.1183777 22,27.1183777 22,21.0718331 Z" id="Oval" stroke="#7A99B8" fill="#BDDEFF"></path>
                        <ellipse id="Oval" stroke="#7A99B8" fill="#BDDEFF" cx="11.2972973" cy="11.6123596" rx="3.56756757" ry="1.48876404"></ellipse>
                        <rect id="Rectangle" fill="#2C9E6E" x="9.11556196" y="0.121869343" width="1.78378378" height="12.505618"></rect>
                        <ellipse id="Oval" fill="#00A16A" cx="11" cy="37.8146067" rx="7.43243243" ry="7.44382022"></ellipse>
                    </g>
                </g>
                <rect id="Rectangle" fill="#3272D0" x="0" y="22.3524547" width="63" height="6"></rect>
            </g>
            <g id="Group-28-Copy-21" transform="translate(1449.000000, 0.000000)">
                <g id="Group-26-Copy-73" transform="translate(30.000000, 14.500000) rotate(-83.000000) translate(-30.000000, -14.500000) translate(19.000000, -12.000000)">
                    <g id="Group-8">
                        <path d="M20.200876,49.8016603 C19.8963092,51.5869348 15.889977,53 10.9924554,53 C6.09493379,53 2.0886016,51.5869348 1.7840348,49.8016603 L1.7654321,49.8016603 L3.41060513e-13,20.247191 L22,21.0316894 L20.2194787,49.8016603 L20.200876,49.8016603 Z" id="Combined-Shape" stroke="#7A99B8" fill="#BDDEFF"></path>
                        <path d="M22,21.0718331 C22,15.0252884 17.0751322,10.1235955 11,10.1235955 C4.92486775,10.1235955 0,15.0252884 0,21.0718331 C0,27.1183777 22,27.1183777 22,21.0718331 Z" id="Oval" stroke="#7A99B8" fill="#BDDEFF"></path>
                        <ellipse id="Oval" stroke="#7A99B8" fill="#BDDEFF" cx="11.2972973" cy="11.6123596" rx="3.56756757" ry="1.48876404"></ellipse>
                        <rect id="Rectangle" fill="#2C9E6E" x="9.11556196" y="0.121869343" width="1.78378378" height="12.505618"></rect>
                        <ellipse id="Oval" fill="#00A16A" cx="11" cy="37.8146067" rx="7.43243243" ry="7.44382022"></ellipse>
                    </g>
                </g>
                <rect id="Rectangle" fill="#3272D0" x="0" y="23.3524547" width="63" height="5"></rect>
            </g>
            <g id="Group-28-Copy-29" transform="translate(1953.000000, 0.000000)">
                <g id="Group-26-Copy-81" transform="translate(30.000000, 14.500000) rotate(-83.000000) translate(-30.000000, -14.500000) translate(19.000000, -12.000000)">
                    <g id="Group-8">
                        <path d="M20.200876,49.8016603 C19.8963092,51.5869348 15.889977,53 10.9924554,53 C6.09493379,53 2.0886016,51.5869348 1.7840348,49.8016603 L1.7654321,49.8016603 L3.41060513e-13,20.247191 L22,21.0316894 L20.2194787,49.8016603 L20.200876,49.8016603 Z" id="Combined-Shape" stroke="#7A99B8" fill="#BDDEFF"></path>
                        <path d="M22,21.0718331 C22,15.0252884 17.0751322,10.1235955 11,10.1235955 C4.92486775,10.1235955 0,15.0252884 0,21.0718331 C0,27.1183777 22,27.1183777 22,21.0718331 Z" id="Oval" stroke="#7A99B8" fill="#BDDEFF"></path>
                        <ellipse id="Oval" stroke="#7A99B8" fill="#BDDEFF" cx="11.2972973" cy="11.6123596" rx="3.56756757" ry="1.48876404"></ellipse>
                        <rect id="Rectangle" fill="#2C9E6E" x="9.11556196" y="0.121869343" width="1.78378378" height="12.505618"></rect>
                        <ellipse id="Oval" fill="#00A16A" cx="11" cy="37.8146067" rx="7.43243243" ry="7.44382022"></ellipse>
                    </g>
                </g>
                <rect id="Rectangle" fill="#3272D0" x="0" y="23.3524547" width="63" height="5"></rect>
            </g>
            <g id="Group-28-Copy-22" transform="translate(1512.000000, 0.000000)">
                <g id="Group-26-Copy-74" transform="translate(30.000000, 14.500000) rotate(-83.000000) translate(-30.000000, -14.500000) translate(19.000000, -12.000000)">
                    <g id="Group-8">
                        <path d="M20.200876,49.8016603 C19.8963092,51.5869348 15.889977,53 10.9924554,53 C6.09493379,53 2.0886016,51.5869348 1.7840348,49.8016603 L1.7654321,49.8016603 L3.41060513e-13,20.247191 L22,21.0316894 L20.2194787,49.8016603 L20.200876,49.8016603 Z" id="Combined-Shape" stroke="#7A99B8" fill="#BDDEFF"></path>
                        <path d="M22,21.0718331 C22,15.0252884 17.0751322,10.1235955 11,10.1235955 C4.92486775,10.1235955 0,15.0252884 0,21.0718331 C0,27.1183777 22,27.1183777 22,21.0718331 Z" id="Oval" stroke="#7A99B8" fill="#BDDEFF"></path>
                        <ellipse id="Oval" stroke="#7A99B8" fill="#BDDEFF" cx="11.2972973" cy="11.6123596" rx="3.56756757" ry="1.48876404"></ellipse>
                        <rect id="Rectangle" fill="#2C9E6E" x="9.11556196" y="0.121869343" width="1.78378378" height="12.505618"></rect>
                        <ellipse id="Oval" fill="#00A16A" cx="11" cy="37.8146067" rx="7.43243243" ry="7.44382022"></ellipse>
                    </g>
                </g>
                <rect id="Rectangle" fill="#3272D0" x="0" y="24.3524547" width="63" height="4"></rect>
            </g>
            <g id="Group-28-Copy-28" transform="translate(1890.000000, 0.000000)">
                <g id="Group-26-Copy-80" transform="translate(30.000000, 14.500000) rotate(-83.000000) translate(-30.000000, -14.500000) translate(19.000000, -12.000000)">
                    <g id="Group-8">
                        <path d="M20.200876,49.8016603 C19.8963092,51.5869348 15.889977,53 10.9924554,53 C6.09493379,53 2.0886016,51.5869348 1.7840348,49.8016603 L1.7654321,49.8016603 L3.41060513e-13,20.247191 L22,21.0316894 L20.2194787,49.8016603 L20.200876,49.8016603 Z" id="Combined-Shape" stroke="#7A99B8" fill="#BDDEFF"></path>
                        <path d="M22,21.0718331 C22,15.0252884 17.0751322,10.1235955 11,10.1235955 C4.92486775,10.1235955 0,15.0252884 0,21.0718331 C0,27.1183777 22,27.1183777 22,21.0718331 Z" id="Oval" stroke="#7A99B8" fill="#BDDEFF"></path>
                        <ellipse id="Oval" stroke="#7A99B8" fill="#BDDEFF" cx="11.2972973" cy="11.6123596" rx="3.56756757" ry="1.48876404"></ellipse>
                        <rect id="Rectangle" fill="#2C9E6E" x="9.11556196" y="0.121869343" width="1.78378378" height="12.505618"></rect>
                        <ellipse id="Oval" fill="#00A16A" cx="11" cy="37.8146067" rx="7.43243243" ry="7.44382022"></ellipse>
                    </g>
                </g>
                <rect id="Rectangle" fill="#3272D0" x="0" y="24.3524547" width="63" height="4"></rect>
            </g>
            <g id="Group-28-Copy-30" transform="translate(2016.000000, 0.000000)">
                <g id="Group-26-Copy-82" transform="translate(30.000000, 14.500000) rotate(-83.000000) translate(-30.000000, -14.500000) translate(19.000000, -12.000000)">
                    <g id="Group-8">
                        <path d="M20.200876,49.8016603 C19.8963092,51.5869348 15.889977,53 10.9924554,53 C6.09493379,53 2.0886016,51.5869348 1.7840348,49.8016603 L1.7654321,49.8016603 L3.41060513e-13,20.247191 L22,21.0316894 L20.2194787,49.8016603 L20.200876,49.8016603 Z" id="Combined-Shape" stroke="#7A99B8" fill="#BDDEFF"></path>
                        <path d="M22,21.0718331 C22,15.0252884 17.0751322,10.1235955 11,10.1235955 C4.92486775,10.1235955 0,15.0252884 0,21.0718331 C0,27.1183777 22,27.1183777 22,21.0718331 Z" id="Oval" stroke="#7A99B8" fill="#BDDEFF"></path>
                        <ellipse id="Oval" stroke="#7A99B8" fill="#BDDEFF" cx="11.2972973" cy="11.6123596" rx="3.56756757" ry="1.48876404"></ellipse>
                        <rect id="Rectangle" fill="#2C9E6E" x="9.11556196" y="0.121869343" width="1.78378378" height="12.505618"></rect>
                        <ellipse id="Oval" fill="#00A16A" cx="11" cy="37.8146067" rx="7.43243243" ry="7.44382022"></ellipse>
                    </g>
                </g>
                <rect id="Rectangle" fill="#3272D0" x="0" y="24.3524547" width="63" height="4"></rect>
            </g>
            <g id="Group-28-Copy-23" transform="translate(1575.000000, 0.000000)">
                <g id="Group-26-Copy-75" transform="translate(30.000000, 14.500000) rotate(-83.000000) translate(-30.000000, -14.500000) translate(19.000000, -12.000000)">
                    <g id="Group-8">
                        <path d="M20.200876,49.8016603 C19.8963092,51.5869348 15.889977,53 10.9924554,53 C6.09493379,53 2.0886016,51.5869348 1.7840348,49.8016603 L1.7654321,49.8016603 L3.41060513e-13,20.247191 L22,21.0316894 L20.2194787,49.8016603 L20.200876,49.8016603 Z" id="Combined-Shape" stroke="#7A99B8" fill="#BDDEFF"></path>
                        <path d="M22,21.0718331 C22,15.0252884 17.0751322,10.1235955 11,10.1235955 C4.92486775,10.1235955 0,15.0252884 0,21.0718331 C0,27.1183777 22,27.1183777 22,21.0718331 Z" id="Oval" stroke="#7A99B8" fill="#BDDEFF"></path>
                        <ellipse id="Oval" stroke="#7A99B8" fill="#BDDEFF" cx="11.2972973" cy="11.6123596" rx="3.56756757" ry="1.48876404"></ellipse>
                        <rect id="Rectangle" fill="#2C9E6E" x="9.11556196" y="0.121869343" width="1.78378378" height="12.505618"></rect>
                        <ellipse id="Oval" fill="#00A16A" cx="11" cy="37.8146067" rx="7.43243243" ry="7.44382022"></ellipse>
                    </g>
                </g>
                <rect id="Rectangle" fill="#3272D0" x="0" y="25.3524547" width="63" height="3"></rect>
            </g>
            <g id="Group-28-Copy-27" transform="translate(1827.000000, 0.000000)">
                <g id="Group-26-Copy-79" transform="translate(30.000000, 14.500000) rotate(-83.000000) translate(-30.000000, -14.500000) translate(19.000000, -12.000000)">
                    <g id="Group-8">
                        <path d="M20.200876,49.8016603 C19.8963092,51.5869348 15.889977,53 10.9924554,53 C6.09493379,53 2.0886016,51.5869348 1.7840348,49.8016603 L1.7654321,49.8016603 L3.41060513e-13,20.247191 L22,21.0316894 L20.2194787,49.8016603 L20.200876,49.8016603 Z" id="Combined-Shape" stroke="#7A99B8" fill="#BDDEFF"></path>
                        <path d="M22,21.0718331 C22,15.0252884 17.0751322,10.1235955 11,10.1235955 C4.92486775,10.1235955 0,15.0252884 0,21.0718331 C0,27.1183777 22,27.1183777 22,21.0718331 Z" id="Oval" stroke="#7A99B8" fill="#BDDEFF"></path>
                        <ellipse id="Oval" stroke="#7A99B8" fill="#BDDEFF" cx="11.2972973" cy="11.6123596" rx="3.56756757" ry="1.48876404"></ellipse>
                        <rect id="Rectangle" fill="#2C9E6E" x="9.11556196" y="0.121869343" width="1.78378378" height="12.505618"></rect>
                        <ellipse id="Oval" fill="#00A16A" cx="11" cy="37.8146067" rx="7.43243243" ry="7.44382022"></ellipse>
                    </g>
                </g>
                <rect id="Rectangle" fill="#3272D0" x="0" y="25.3524547" width="63" height="3"></rect>
            </g>
            <g id="Group-28-Copy-31" transform="translate(2079.000000, 0.000000)">
                <g id="Group-26-Copy-83" transform="translate(30.000000, 14.500000) rotate(-83.000000) translate(-30.000000, -14.500000) translate(19.000000, -12.000000)">
                    <g id="Group-8">
                        <path d="M20.200876,49.8016603 C19.8963092,51.5869348 15.889977,53 10.9924554,53 C6.09493379,53 2.0886016,51.5869348 1.7840348,49.8016603 L1.7654321,49.8016603 L3.41060513e-13,20.247191 L22,21.0316894 L20.2194787,49.8016603 L20.200876,49.8016603 Z" id="Combined-Shape" stroke="#7A99B8" fill="#BDDEFF"></path>
                        <path d="M22,21.0718331 C22,15.0252884 17.0751322,10.1235955 11,10.1235955 C4.92486775,10.1235955 0,15.0252884 0,21.0718331 C0,27.1183777 22,27.1183777 22,21.0718331 Z" id="Oval" stroke="#7A99B8" fill="#BDDEFF"></path>
                        <ellipse id="Oval" stroke="#7A99B8" fill="#BDDEFF" cx="11.2972973" cy="11.6123596" rx="3.56756757" ry="1.48876404"></ellipse>
                        <rect id="Rectangle" fill="#2C9E6E" x="9.11556196" y="0.121869343" width="1.78378378" height="12.505618"></rect>
                        <ellipse id="Oval" fill="#00A16A" cx="11" cy="37.8146067" rx="7.43243243" ry="7.44382022"></ellipse>
                    </g>
                </g>
                <rect id="Rectangle" fill="#3272D0" x="0" y="25.3524547" width="63" height="3"></rect>
            </g>
            <g id="Group-28-Copy-24" transform="translate(1638.000000, 0.000000)">
                <g id="Group-26-Copy-76" transform="translate(30.000000, 14.500000) rotate(-83.000000) translate(-30.000000, -14.500000) translate(19.000000, -12.000000)">
                    <g id="Group-8">
                        <path d="M20.200876,49.8016603 C19.8963092,51.5869348 15.889977,53 10.9924554,53 C6.09493379,53 2.0886016,51.5869348 1.7840348,49.8016603 L1.7654321,49.8016603 L3.41060513e-13,20.247191 L22,21.0316894 L20.2194787,49.8016603 L20.200876,49.8016603 Z" id="Combined-Shape" stroke="#7A99B8" fill="#BDDEFF"></path>
                        <path d="M22,21.0718331 C22,15.0252884 17.0751322,10.1235955 11,10.1235955 C4.92486775,10.1235955 0,15.0252884 0,21.0718331 C0,27.1183777 22,27.1183777 22,21.0718331 Z" id="Oval" stroke="#7A99B8" fill="#BDDEFF"></path>
                        <ellipse id="Oval" stroke="#7A99B8" fill="#BDDEFF" cx="11.2972973" cy="11.6123596" rx="3.56756757" ry="1.48876404"></ellipse>
                        <rect id="Rectangle" fill="#2C9E6E" x="9.11556196" y="0.121869343" width="1.78378378" height="12.505618"></rect>
                        <ellipse id="Oval" fill="#00A16A" cx="11" cy="37.8146067" rx="7.43243243" ry="7.44382022"></ellipse>
                    </g>
                </g>
                <rect id="Rectangle" fill="#3272D0" x="0" y="26.3524547" width="63" height="2"></rect>
            </g>
            <g id="Group-28-Copy-26" transform="translate(1764.000000, 0.000000)">
                <g id="Group-26-Copy-78" transform="translate(30.000000, 14.500000) rotate(-83.000000) translate(-30.000000, -14.500000) translate(19.000000, -12.000000)">
                    <g id="Group-8">
                        <path d="M20.200876,49.8016603 C19.8963092,51.5869348 15.889977,53 10.9924554,53 C6.09493379,53 2.0886016,51.5869348 1.7840348,49.8016603 L1.7654321,49.8016603 L3.41060513e-13,20.247191 L22,21.0316894 L20.2194787,49.8016603 L20.200876,49.8016603 Z" id="Combined-Shape" stroke="#7A99B8" fill="#BDDEFF"></path>
                        <path d="M22,21.0718331 C22,15.0252884 17.0751322,10.1235955 11,10.1235955 C4.92486775,10.1235955 0,15.0252884 0,21.0718331 C0,27.1183777 22,27.1183777 22,21.0718331 Z" id="Oval" stroke="#7A99B8" fill="#BDDEFF"></path>
                        <ellipse id="Oval" stroke="#7A99B8" fill="#BDDEFF" cx="11.2972973" cy="11.6123596" rx="3.56756757" ry="1.48876404"></ellipse>
                        <rect id="Rectangle" fill="#2C9E6E" x="9.11556196" y="0.121869343" width="1.78378378" height="12.505618"></rect>
                        <ellipse id="Oval" fill="#00A16A" cx="11" cy="37.8146067" rx="7.43243243" ry="7.44382022"></ellipse>
                    </g>
                </g>
                <rect id="Rectangle" fill="#3272D0" x="0" y="26.3524547" width="63" height="2"></rect>
            </g>
            <g id="Group-28-Copy-32" transform="translate(2142.000000, 0.000000)">
                <g id="Group-26-Copy-84" transform="translate(30.000000, 14.500000) rotate(-83.000000) translate(-30.000000, -14.500000) translate(19.000000, -12.000000)">
                    <g id="Group-8">
                        <path d="M20.200876,49.8016603 C19.8963092,51.5869348 15.889977,53 10.9924554,53 C6.09493379,53 2.0886016,51.5869348 1.7840348,49.8016603 L1.7654321,49.8016603 L3.41060513e-13,20.247191 L22,21.0316894 L20.2194787,49.8016603 L20.200876,49.8016603 Z" id="Combined-Shape" stroke="#7A99B8" fill="#BDDEFF"></path>
                        <path d="M22,21.0718331 C22,15.0252884 17.0751322,10.1235955 11,10.1235955 C4.92486775,10.1235955 0,15.0252884 0,21.0718331 C0,27.1183777 22,27.1183777 22,21.0718331 Z" id="Oval" stroke="#7A99B8" fill="#BDDEFF"></path>
                        <ellipse id="Oval" stroke="#7A99B8" fill="#BDDEFF" cx="11.2972973" cy="11.6123596" rx="3.56756757" ry="1.48876404"></ellipse>
                        <rect id="Rectangle" fill="#2C9E6E" x="9.11556196" y="0.121869343" width="1.78378378" height="12.505618"></rect>
                        <ellipse id="Oval" fill="#00A16A" cx="11" cy="37.8146067" rx="7.43243243" ry="7.44382022"></ellipse>
                    </g>
                </g>
                <rect id="Rectangle" fill="#3272D0" x="0" y="26.3524547" width="63" height="2"></rect>
            </g>
            <g id="Group-28-Copy-25" transform="translate(1701.000000, 0.000000)">
                <g id="Group-26-Copy-77" transform="translate(30.000000, 14.500000) rotate(-83.000000) translate(-30.000000, -14.500000) translate(19.000000, -12.000000)">
                    <g id="Group-8">
                        <path d="M20.200876,49.8016603 C19.8963092,51.5869348 15.889977,53 10.9924554,53 C6.09493379,53 2.0886016,51.5869348 1.7840348,49.8016603 L1.7654321,49.8016603 L3.41060513e-13,20.247191 L22,21.0316894 L20.2194787,49.8016603 L20.200876,49.8016603 Z" id="Combined-Shape" stroke="#7A99B8" fill="#BDDEFF"></path>
                        <path d="M22,21.0718331 C22,15.0252884 17.0751322,10.1235955 11,10.1235955 C4.92486775,10.1235955 0,15.0252884 0,21.0718331 C0,27.1183777 22,27.1183777 22,21.0718331 Z" id="Oval" stroke="#7A99B8" fill="#BDDEFF"></path>
                        <ellipse id="Oval" stroke="#7A99B8" fill="#BDDEFF" cx="11.2972973" cy="11.6123596" rx="3.56756757" ry="1.48876404"></ellipse>
                        <rect id="Rectangle" fill="#2C9E6E" x="9.11556196" y="0.121869343" width="1.78378378" height="12.505618"></rect>
                        <ellipse id="Oval" fill="#00A16A" cx="11" cy="37.8146067" rx="7.43243243" ry="7.44382022"></ellipse>
                    </g>
                </g>
                <rect id="Rectangle" fill="#3272D0" x="0" y="27.3524547" width="63" height="1"></rect>
            </g>
        </g>
    </g>
</svg>