<?xml version="1.0" encoding="UTF-8"?>
<svg width="3024px" height="530px" viewBox="0 0 3024 530" version="1.1" xmlns="http://www.w3.org/2000/svg" xmlns:xlink="http://www.w3.org/1999/xlink">
    <!-- Generator: Sketch 52.3 (67297) - http://www.bohemiancoding.com/sketch -->
    <title>Group 31</title>
    <desc>Created with Sketch.</desc>
    <g id="Page-1" stroke="none" stroke-width="1" fill="none" fill-rule="evenodd">
        <g id="Group-31" fill-rule="nonzero">
            <rect id="Rectangle" fill="#3272D0" x="0" y="1" width="275" height="529"></rect>
            <g id="Group-30" transform="translate(147.000000, 215.500000) rotate(18.000000) translate(-147.000000, -215.500000) translate(56.000000, 20.000000)">
                <rect id="Rectangle" fill="#D6D6D6" x="21" y="134" width="161" height="257"></rect>
                <rect id="Rectangle" fill="#D25151" x="21" y="193" width="161" height="146"></rect>
                <polygon id="Triangle" fill="#FFF245" points="101.5 231 152 294 51 294"></polygon>
                <ellipse id="Oval" stroke="#979797" fill="#646464" cx="101.5" cy="133" rx="80.5" ry="16"></ellipse>
                <ellipse id="Oval" fill="#D8D8D8" cx="22" cy="67.5" rx="22" ry="67.5"></ellipse>
                <ellipse id="Oval" stroke="#B5B5B5" stroke-width="0.5" cx="20" cy="68" rx="16" ry="53"></ellipse>
            </g>
            <rect id="Rectangle" fill="#3272D0" x="2748.75548" y="0" width="275" height="529"></rect>
            <g id="Group-30" transform="translate(2895.714440, 214.052095) rotate(18.000000) translate(-2895.714440, -214.052095) translate(2804.714440, 18.552095)">
                <rect id="Rectangle" fill="#D6D6D6" x="21" y="134" width="161" height="257"></rect>
                <rect id="Rectangle" fill="#D25151" x="21" y="193" width="161" height="146"></rect>
                <polygon id="Triangle" fill="#FFF245" points="101.5 231 152 294 51 294"></polygon>
                <ellipse id="Oval" stroke="#979797" fill="#646464" cx="101.5" cy="133" rx="80.5" ry="16"></ellipse>
                <ellipse id="Oval" fill="#D8D8D8" cx="22" cy="67.5" rx="22" ry="67.5"></ellipse>
                <ellipse id="Oval" stroke="#B5B5B5" stroke-width="0.5" cx="20" cy="68" rx="16" ry="53"></ellipse>
            </g>
            <rect id="Rectangle" fill="#3272D0" x="275" y="1" width="275" height="529"></rect>
            <g id="Group-30" transform="translate(421.958965, 235.052095) rotate(18.000000) translate(-421.958965, -235.052095) translate(330.958965, 39.552095)">
                <rect id="Rectangle" fill="#D6D6D6" x="21" y="134" width="161" height="257"></rect>
                <rect id="Rectangle" fill="#D25151" x="21" y="193" width="161" height="146"></rect>
                <polygon id="Triangle" fill="#FFF245" points="101.5 231 152 294 51 294"></polygon>
                <ellipse id="Oval" stroke="#979797" fill="#646464" cx="101.5" cy="133" rx="80.5" ry="16"></ellipse>
                <ellipse id="Oval" fill="#D8D8D8" cx="22" cy="67.5" rx="22" ry="67.5"></ellipse>
                <ellipse id="Oval" stroke="#B5B5B5" stroke-width="0.5" cx="20" cy="68" rx="16" ry="53"></ellipse>
            </g>
            <rect id="Rectangle" fill="#3272D0" x="2474" y="0" width="275" height="529"></rect>
            <g id="Group-30" transform="translate(2620.958965, 234.052095) rotate(18.000000) translate(-2620.958965, -234.052095) translate(2529.958965, 38.552095)">
                <rect id="Rectangle" fill="#D6D6D6" x="21" y="134" width="161" height="257"></rect>
                <rect id="Rectangle" fill="#D25151" x="21" y="193" width="161" height="146"></rect>
                <polygon id="Triangle" fill="#FFF245" points="101.5 231 152 294 51 294"></polygon>
                <ellipse id="Oval" stroke="#979797" fill="#646464" cx="101.5" cy="133" rx="80.5" ry="16"></ellipse>
                <ellipse id="Oval" fill="#D8D8D8" cx="22" cy="67.5" rx="22" ry="67.5"></ellipse>
                <ellipse id="Oval" stroke="#B5B5B5" stroke-width="0.5" cx="20" cy="68" rx="16" ry="53"></ellipse>
            </g>
            <rect id="Rectangle" fill="#3272D0" x="550" y="1" width="275" height="529"></rect>
            <g id="Group-30" transform="translate(696.958965, 255.052095) rotate(18.000000) translate(-696.958965, -255.052095) translate(605.958965, 59.552095)">
                <rect id="Rectangle" fill="#D6D6D6" x="21" y="134" width="161" height="257"></rect>
                <rect id="Rectangle" fill="#D25151" x="21" y="193" width="161" height="146"></rect>
                <polygon id="Triangle" fill="#FFF245" points="101.5 231 152 294 51 294"></polygon>
                <ellipse id="Oval" stroke="#979797" fill="#646464" cx="101.5" cy="133" rx="80.5" ry="16"></ellipse>
                <ellipse id="Oval" fill="#D8D8D8" cx="22" cy="67.5" rx="22" ry="67.5"></ellipse>
                <ellipse id="Oval" stroke="#B5B5B5" stroke-width="0.5" cx="20" cy="68" rx="16" ry="53"></ellipse>
            </g>
            <rect id="Rectangle" fill="#3272D0" x="2199" y="0" width="275" height="529"></rect>
            <g id="Group-30" transform="translate(2345.958965, 254.052095) rotate(18.000000) translate(-2345.958965, -254.052095) translate(2254.958965, 58.552095)">
                <rect id="Rectangle" fill="#D6D6D6" x="21" y="134" width="161" height="257"></rect>
                <rect id="Rectangle" fill="#D25151" x="21" y="193" width="161" height="146"></rect>
                <polygon id="Triangle" fill="#FFF245" points="101.5 231 152 294 51 294"></polygon>
                <ellipse id="Oval" stroke="#979797" fill="#646464" cx="101.5" cy="133" rx="80.5" ry="16"></ellipse>
                <ellipse id="Oval" fill="#D8D8D8" cx="22" cy="67.5" rx="22" ry="67.5"></ellipse>
                <ellipse id="Oval" stroke="#B5B5B5" stroke-width="0.5" cx="20" cy="68" rx="16" ry="53"></ellipse>
            </g>
            <rect id="Rectangle" fill="#3272D0" x="825" y="1" width="275" height="529"></rect>
            <g id="Group-30" transform="translate(971.958965, 274.052095) rotate(18.000000) translate(-971.958965, -274.052095) translate(880.958965, 78.552095)">
                <rect id="Rectangle" fill="#D6D6D6" x="21" y="134" width="161" height="257"></rect>
                <rect id="Rectangle" fill="#D25151" x="21" y="193" width="161" height="146"></rect>
                <polygon id="Triangle" fill="#FFF245" points="101.5 231 152 294 51 294"></polygon>
                <ellipse id="Oval" stroke="#979797" fill="#646464" cx="101.5" cy="133" rx="80.5" ry="16"></ellipse>
                <ellipse id="Oval" fill="#D8D8D8" cx="22" cy="67.5" rx="22" ry="67.5"></ellipse>
                <ellipse id="Oval" stroke="#B5B5B5" stroke-width="0.5" cx="20" cy="68" rx="16" ry="53"></ellipse>
            </g>
            <rect id="Rectangle" fill="#3272D0" x="1924" y="0" width="275" height="529"></rect>
            <g id="Group-30" transform="translate(2070.958965, 273.052095) rotate(18.000000) translate(-2070.958965, -273.052095) translate(1979.958965, 77.552095)">
                <rect id="Rectangle" fill="#D6D6D6" x="21" y="134" width="161" height="257"></rect>
                <rect id="Rectangle" fill="#D25151" x="21" y="193" width="161" height="146"></rect>
                <polygon id="Triangle" fill="#FFF245" points="101.5 231 152 294 51 294"></polygon>
                <ellipse id="Oval" stroke="#979797" fill="#646464" cx="101.5" cy="133" rx="80.5" ry="16"></ellipse>
                <ellipse id="Oval" fill="#D8D8D8" cx="22" cy="67.5" rx="22" ry="67.5"></ellipse>
                <ellipse id="Oval" stroke="#B5B5B5" stroke-width="0.5" cx="20" cy="68" rx="16" ry="53"></ellipse>
            </g>
            <rect id="Rectangle" fill="#3272D0" x="1100" y="0" width="275" height="529"></rect>
            <g id="Group-30" transform="translate(1246.958965, 292.052095) rotate(18.000000) translate(-1246.958965, -292.052095) translate(1155.958965, 96.552095)">
                <rect id="Rectangle" fill="#D6D6D6" x="21" y="134" width="161" height="257"></rect>
                <rect id="Rectangle" fill="#D25151" x="21" y="193" width="161" height="146"></rect>
                <polygon id="Triangle" fill="#FFF245" points="101.5 231 152 294 51 294"></polygon>
                <ellipse id="Oval" stroke="#979797" fill="#646464" cx="101.5" cy="133" rx="80.5" ry="16"></ellipse>
                <ellipse id="Oval" fill="#D8D8D8" cx="22" cy="67.5" rx="22" ry="67.5"></ellipse>
                <ellipse id="Oval" stroke="#B5B5B5" stroke-width="0.5" cx="20" cy="68" rx="16" ry="53"></ellipse>
            </g>
            <rect id="Rectangle" fill="#3272D0" x="1375" y="0" width="275" height="529"></rect>
            <g id="Group-30" transform="translate(1521.958965, 295.052095) rotate(18.000000) translate(-1521.958965, -295.052095) translate(1430.958965, 99.552095)">
                <rect id="Rectangle" fill="#D6D6D6" x="21" y="134" width="161" height="257"></rect>
                <rect id="Rectangle" fill="#D25151" x="21" y="193" width="161" height="146"></rect>
                <polygon id="Triangle" fill="#FFF245" points="101.5 231 152 294 51 294"></polygon>
                <ellipse id="Oval" stroke="#979797" fill="#646464" cx="101.5" cy="133" rx="80.5" ry="16"></ellipse>
                <ellipse id="Oval" fill="#D8D8D8" cx="22" cy="67.5" rx="22" ry="67.5"></ellipse>
                <ellipse id="Oval" stroke="#B5B5B5" stroke-width="0.5" cx="20" cy="68" rx="16" ry="53"></ellipse>
            </g>
            <rect id="Rectangle" fill="#3272D0" x="1650" y="0" width="275" height="529"></rect>
            <g id="Group-30" transform="translate(1796.958965, 292.052095) rotate(18.000000) translate(-1796.958965, -292.052095) translate(1705.958965, 96.552095)">
                <rect id="Rectangle" fill="#D6D6D6" x="21" y="134" width="161" height="257"></rect>
                <rect id="Rectangle" fill="#D25151" x="21" y="193" width="161" height="146"></rect>
                <polygon id="Triangle" fill="#FFF245" points="101.5 231 152 294 51 294"></polygon>
                <ellipse id="Oval" stroke="#979797" fill="#646464" cx="101.5" cy="133" rx="80.5" ry="16"></ellipse>
                <ellipse id="Oval" fill="#D8D8D8" cx="22" cy="67.5" rx="22" ry="67.5"></ellipse>
                <ellipse id="Oval" stroke="#B5B5B5" stroke-width="0.5" cx="20" cy="68" rx="16" ry="53"></ellipse>
            </g>
        </g>
    </g>
</svg>