<?xml version="1.0" encoding="UTF-8"?>
<svg width="45px" height="59px" viewBox="0 0 45 59" version="1.1" xmlns="http://www.w3.org/2000/svg" xmlns:xlink="http://www.w3.org/1999/xlink">
    <!-- Generator: Sketch 52.3 (67297) - http://www.bohemiancoding.com/sketch -->
    <title>noun_clipboard_540837</title>
    <desc>Created with Sketch.</desc>
    <g id="Page-1" stroke="none" stroke-width="1" fill="none" fill-rule="evenodd">
        <g id="Landing-Page" transform="translate(-870.000000, -8855.000000)" fill="#53575A" fill-rule="nonzero">
            <g id="noun_clipboard_540837" transform="translate(870.000000, 8855.000000)">
                <g id="Group">
                    <path d="M22.5,0.238544042 C20.6616031,0.238544042 18.9847919,0.608880736 17.6608456,1.3088242 C16.3368993,2.00876767 15.2205882,3.16715329 15.2205882,4.70490548 L15.2205882,5.5076156 L10.5882353,5.5076156 C9.85730046,5.50768833 9.26477896,6.09740665 9.26470588,6.82488349 L9.26470588,9.45941926 L3.30882353,9.45941926 C1.49858669,9.45941926 0,10.9509156 0,12.752589 L0,54.9051614 C0,56.7067887 1.49856022,58.1983312 3.30882353,58.1983312 L41.6911765,58.1983312 C43.5014398,58.1983312 45,56.7067887 45,54.9051614 L45,12.752589 C45,10.9509156 43.5014133,9.45941926 41.6911765,9.45941926 L35.7352941,9.45941926 L35.7352941,6.82488349 C35.735221,6.09740665 35.1426995,5.50768833 34.4117647,5.5076156 L29.7794118,5.5076156 L29.7794118,4.70490548 C29.7794118,3.16715329 28.6631007,2.00876767 27.3391544,1.3088242 C26.0152081,0.608880736 24.3383969,0.238544042 22.5,0.238544042 Z M22.5,2.87307982 C23.9611619,2.87307982 25.2692404,3.19629784 26.0983456,3.63462532 C26.9274507,4.07295279 27.1323529,4.49756093 27.1323529,4.70490548 L27.1323529,6.82488349 C27.132426,7.55236032 27.7249475,8.14207864 28.4558824,8.14215137 L33.0882353,8.14215137 L33.0882353,13.4112229 L11.9117647,13.4112229 L11.9117647,8.14215137 L16.5441176,8.14215137 C17.2750525,8.14207864 17.867574,7.55236032 17.8676471,6.82488349 L17.8676471,4.70490548 C17.8676471,4.49756093 18.0725493,4.07295279 18.9016544,3.63462532 C19.7307596,3.19629784 21.0388381,2.87307982 22.5,2.87307982 Z M3.30882353,12.093955 L9.26470588,12.093955 L9.26470588,14.7284908 C9.26477896,15.4559677 9.85730046,16.045686 10.5882353,16.0457587 L34.4117647,16.0457587 C35.1426995,16.045686 35.735221,15.4559677 35.7352941,14.7284908 L35.7352941,12.093955 L41.6911765,12.093955 C42.0807329,12.093955 42.3529412,12.3648709 42.3529412,12.752589 L42.3529412,54.9051614 C42.3529412,55.2928334 42.0807064,55.5637954 41.6911765,55.5637954 L3.30882353,55.5637954 C2.9192936,55.5637954 2.64705882,55.2928334 2.64705882,54.9051614 L2.64705882,12.752589 C2.64705882,12.3648709 2.91926713,12.093955 3.30882353,12.093955 Z M15.7169118,21.294248 C15.4252266,21.3361886 15.1559472,21.4738131 14.9517463,21.6853119 L11.9117647,24.7109115 L10.1953125,23.0025797 C9.86134753,22.6607225 9.36785024,22.5251472 8.90497582,22.6480939 C8.44210141,22.7710406 8.08210182,23.1333181 7.9636927,23.5953331 C7.84528357,24.057348 7.98694787,24.5469826 8.33409926,24.87557 L10.9811581,27.5101058 C11.4968294,28.0175053 12.3267001,28.0175053 12.8423713,27.5101058 L16.8129596,23.5583021 C17.2341936,23.1645518 17.3500853,22.5443377 17.099246,22.0261909 C16.8484068,21.5080441 16.2888239,21.2117462 15.7169118,21.294248 Z M23.6994485,24.608 C23.2265295,24.6299688 22.8013219,24.901407 22.5840345,25.3200426 C22.3667471,25.7386781 22.3904003,26.2408926 22.6460821,26.6374626 C22.9017639,27.0340326 23.3506193,27.2646929 23.8235294,27.2425358 L35.7352941,27.2425358 C36.2126064,27.2492542 36.6565783,26.9996641 36.8972043,26.5893384 C37.1378304,26.1790127 37.1378304,25.6715231 36.8972043,25.2611974 C36.6565783,24.8508716 36.2126064,24.6012815 35.7352941,24.608 L23.8235294,24.608 C23.7821919,24.6060695 23.7407861,24.6060695 23.6994485,24.608 Z M15.7169118,31.1737571 C15.4252266,31.2156978 15.1559472,31.3533222 14.9517463,31.564821 L11.9117647,34.5904207 L10.1953125,32.8820889 C9.86134753,32.5402316 9.36785024,32.4046563 8.90497582,32.527603 C8.44210141,32.6505498 8.08210182,33.0128273 7.9636927,33.4748423 C7.84528357,33.9368572 7.98694787,34.4264918 8.33409926,34.7550792 L10.9811581,37.389615 C11.4968294,37.8970145 12.3267001,37.8970145 12.8423713,37.389615 L16.8129596,33.4378113 C17.2341936,33.044061 17.3500853,32.4238469 17.099246,31.9057001 C16.8484068,31.3875533 16.2888239,31.0912554 15.7169118,31.1737571 Z M23.6994485,34.4875092 C23.2265295,34.509478 22.8013219,34.7809162 22.5840345,35.1995517 C22.3667471,35.6181873 22.3904003,36.1204018 22.6460821,36.5169718 C22.9017639,36.9135417 23.3506193,37.1442021 23.8235294,37.1220449 L35.7352941,37.1220449 C36.2126064,37.1287634 36.6565783,36.8791733 36.8972043,36.4688475 C37.1378304,36.0585218 37.1378304,35.5510323 36.8972043,35.1407065 C36.6565783,34.7303808 36.2126064,34.4807907 35.7352941,34.4875092 L23.8235294,34.4875092 C23.7821919,34.4855787 23.7407861,34.4855787 23.6994485,34.4875092 Z M15.7169118,41.0532663 C15.4252266,41.0952069 15.1559472,41.2328314 14.9517463,41.4443302 L11.9117647,44.4699299 L10.1953125,42.7615981 C9.86134753,42.4197408 9.36785024,42.2841655 8.90497582,42.4071122 C8.44210141,42.5300589 8.08210182,42.8923365 7.9636927,43.3543514 C7.84528357,43.8163664 7.98694787,44.306001 8.33409926,44.6345884 L10.9811581,47.2691241 C11.4968294,47.7765236 12.3267001,47.7765236 12.8423713,47.2691241 L16.8129596,43.3173205 C17.2341936,42.9235702 17.3500853,42.303356 17.099246,41.7852092 C16.8484068,41.2670624 16.2888239,40.9707645 15.7169118,41.0532663 Z M23.6994485,44.3670183 C23.2265295,44.3889872 22.8013219,44.6604254 22.5840345,45.0790609 C22.3667471,45.4976964 22.3904003,45.9999109 22.6460821,46.3964809 C22.9017639,46.7930509 23.3506193,47.0237112 23.8235294,47.0015541 L35.7352941,47.0015541 C36.2126064,47.0082725 36.6565783,46.7586824 36.8972043,46.3483567 C37.1378304,45.938031 37.1378304,45.4305414 36.8972043,45.0202157 C36.6565783,44.60989 36.2126064,44.3602999 35.7352941,44.3670183 L23.8235294,44.3670183 C23.7821919,44.3650879 23.7407861,44.3650879 23.6994485,44.3670183 Z" id="Shape"></path>
                </g>
            </g>
        </g>
    </g>
</svg>