<?xml version="1.0" encoding="UTF-8"?>
<svg width="45px" height="34px" viewBox="0 0 45 34" version="1.1" xmlns="http://www.w3.org/2000/svg" xmlns:xlink="http://www.w3.org/1999/xlink">
    <!-- Generator: Sketch 52.3 (67297) - http://www.bohemiancoding.com/sketch -->
    <title>noun_chart_1948599 copy</title>
    <desc>Created with Sketch.</desc>
    <g id="Page-1" stroke="none" stroke-width="1" fill="none" fill-rule="evenodd">
        <g id="Landing-Page" transform="translate(-677.000000, -17037.000000)" fill="#53575A" fill-rule="nonzero">
            <g id="Group-5" transform="translate(313.000000, 263.000000)">
                <g id="Group-91-Copy">
                    <g id="Group-69-Copy">
                        <g id="Group-90-Copy">
                            <g id="Group-89">
                                <g id="Group-4-Copy">
                                    <g id="Group-79-Copy">
                                        <g id="Data-at-your-fingertips-Copy" transform="translate(364.000000, 16395.000000)">
                                            <g id="noun_chart_1948599-copy" transform="translate(0.000000, 379.000000)">
                                                <path d="M1.56560269e-15,31.1151739 L44.8349838,31.1151739 L44.8349838,33.1714185 L1.56560269e-15,33.1714185 L1.56560269e-15,31.1151739 Z M-2.42212883e-13,23.9183178 C-2.42429304e-13,21.6470527 1.74550487,19.8058286 3.89869425,19.8058286 C4.64771005,19.8045369 5.38089992,20.0331621 6.00886251,20.4638269 L13.1580931,13.5240013 C12.366393,12.0141337 12.5523818,10.1435068 13.6238283,8.83975816 C14.6952748,7.5360095 16.4243245,7.07639511 17.9535475,7.68883623 C19.4827704,8.30127735 20.4869611,9.85553185 20.4681448,11.5808502 C20.4688861,12.1879875 20.3389103,12.7873751 20.0880221,13.3337987 L25.9945439,18.5258163 C27.091776,17.6941706 28.5189869,17.5210604 29.7665306,18.0683019 L37.8855613,6.75895656 C36.6695884,5.13282601 36.7897447,2.80657966 38.1660096,1.32943222 C39.5422745,-0.147715227 41.74517,-0.314804406 43.3076297,0.939441377 C44.8700893,2.19368716 45.3045311,4.47786735 44.3216291,6.27078212 C43.3387271,8.06369689 41.2452061,8.80584838 39.4352923,8.00298455 L31.3211349,19.2917674 C32.381397,20.7031425 32.4478422,22.6779912 31.4851018,24.1651015 C30.5223614,25.6522117 28.7543861,26.3056549 27.1222693,25.7776031 C25.4901524,25.2495514 24.3735539,23.662839 24.366839,21.8620732 C24.3660978,21.2549359 24.4960735,20.6555482 24.7469617,20.1091247 L18.8404399,14.917107 C17.5401737,15.9028796 15.8007114,15.9497702 14.4544089,15.0353411 L7.33441855,21.9751666 C8.10208811,23.4849652 7.90199439,25.3386108 6.83219471,26.6277116 C5.76239503,27.9168123 4.0470366,28.3712724 2.52674279,27.7683806 C1.00644898,27.1654887 -0.000244305844,25.6315643 -2.42212883e-13,23.9183178 Z M38.9869425,4.21435386 C38.9869425,5.3499864 39.8596949,6.27059847 40.9362896,6.27059847 C42.0128843,6.27059847 42.8856367,5.3499864 42.8856367,4.21435386 C42.8856367,3.07872132 42.0128843,2.15810926 40.9362896,2.15810926 C39.8596949,2.15810926 38.9869425,3.07872132 38.9869425,4.21435386 Z M26.3161862,21.8620732 C26.3161862,22.9977057 27.1889386,23.9183178 28.2655333,23.9183178 C29.342128,23.9183178 30.2148804,22.9977057 30.2148804,21.8620732 C30.2148804,20.7264406 29.342128,19.8058286 28.2655333,19.8058286 C27.1889386,19.8058286 26.3161862,20.7264406 26.3161862,21.8620732 Z M14.6201034,11.5808502 C14.6201034,12.7164827 15.4928559,13.6370948 16.5694505,13.6370948 C17.6460452,13.6370948 18.5187977,12.7164827 18.5187977,11.5808502 C18.5187977,10.4452176 17.6460452,9.52460555 16.5694505,9.52460555 C15.4928559,9.52460555 14.6201034,10.4452176 14.6201034,11.5808502 Z M1.94934712,23.9183178 C1.94934712,25.0539503 2.82209956,25.9745624 3.89869425,25.9745624 C4.97528893,25.9745624 5.84804137,25.0539503 5.84804137,23.9183178 C5.84804137,22.7826853 4.97528893,21.8620732 3.89869425,21.8620732 C2.82209956,21.8620732 1.94934712,22.7826853 1.94934712,23.9183178 Z" id="Shape"></path>
                                            </g>
                                        </g>
                                    </g>
                                </g>
                            </g>
                        </g>
                    </g>
                </g>
            </g>
        </g>
    </g>
</svg>