<?xml version="1.0" encoding="UTF-8"?>
<svg width="1440px" height="701px" viewBox="0 0 1440 701" version="1.1" xmlns="http://www.w3.org/2000/svg" xmlns:xlink="http://www.w3.org/1999/xlink">
    <!-- Generator: Sketch 52.3 (67297) - http://www.bohemiancoding.com/sketch -->
    <title>Group 6</title>
    <desc>Created with Sketch.</desc>
    <g id="Page-1" stroke="none" stroke-width="1" fill="none" fill-rule="evenodd">
        <g id="Group-6">
            <rect id="Rectangle" fill="#1A20AA" fill-rule="nonzero" x="0" y="0" width="1440" height="701"></rect>
            <text id="🌚" font-family="AppleColorEmoji, Apple Color Emoji" font-size="150" font-weight="normal" letter-spacing="18" fill="#FFFFFF">
                <tspan x="1008.5" y="298">🌚</tspan>
            </text>
            <text id="🌝" font-family="AppleColorEmoji, Apple Color Emoji" font-size="150" font-weight="normal" letter-spacing="18" fill="#FFFFFF">
                <tspan x="252.5" y="297">🌝</tspan>
            </text>
            <g id="Group" transform="translate(0.000000, 574.000000)" fill-rule="nonzero">
                <rect id="Rectangle" fill="#FDF9D7" x="0" y="0" width="1440" height="127"></rect>
                <polygon id="Triangle" fill="#7FD2FF" transform="translate(80.278746, 62.871287) scale(1, -1) translate(-80.278746, -62.871287) " points="80.2787456 0 160.557491 125.742574 0 125.742574"></polygon>
                <polygon id="Triangle" fill="#7FD2FF" transform="translate(175.609756, 62.871287) scale(1, -1) translate(-175.609756, -62.871287) " points="175.609756 0 255.888502 125.742574 95.3310105 125.742574"></polygon>
                <polygon id="Triangle" fill="#7FD2FF" transform="translate(255.888502, 62.871287) scale(1, -1) translate(-255.888502, -62.871287) " points="255.888502 0 336.167247 125.742574 175.609756 125.742574"></polygon>
                <polygon id="Triangle" fill="#7FD2FF" transform="translate(336.167247, 62.871287) scale(1, -1) translate(-336.167247, -62.871287) " points="336.167247 0 416.445993 125.742574 255.888502 125.742574"></polygon>
                <polygon id="Triangle" fill="#7FD2FF" transform="translate(431.498258, 62.871287) scale(1, -1) translate(-431.498258, -62.871287) " points="431.498258 0 511.777003 125.742574 351.219512 125.742574"></polygon>
                <polygon id="Triangle" fill="#7FD2FF" transform="translate(511.777003, 62.871287) scale(1, -1) translate(-511.777003, -62.871287) " points="511.777003 0 592.055749 125.742574 431.498258 125.742574"></polygon>
                <polygon id="Triangle" fill="#7FD2FF" transform="translate(592.055749, 62.871287) scale(1, -1) translate(-592.055749, -62.871287) " points="592.055749 0 672.334495 125.742574 511.777003 125.742574"></polygon>
                <polygon id="Triangle" fill="#7FD2FF" transform="translate(687.386760, 62.871287) scale(1, -1) translate(-687.386760, -62.871287) " points="687.38676 0 767.665505 125.742574 607.108014 125.742574"></polygon>
                <polygon id="Triangle" fill="#7FD2FF" transform="translate(767.665505, 62.871287) scale(1, -1) translate(-767.665505, -62.871287) " points="767.665505 0 847.944251 125.742574 687.38676 125.742574"></polygon>
                <polygon id="Triangle" fill="#7FD2FF" transform="translate(847.944251, 62.871287) scale(1, -1) translate(-847.944251, -62.871287) " points="847.944251 0 928.222997 125.742574 767.665505 125.742574"></polygon>
                <polygon id="Triangle" fill="#7FD2FF" transform="translate(943.275261, 62.871287) scale(1, -1) translate(-943.275261, -62.871287) " points="943.275261 0 1023.55401 125.742574 862.996516 125.742574"></polygon>
                <polygon id="Triangle" fill="#7FD2FF" transform="translate(1023.554007, 62.871287) scale(1, -1) translate(-1023.554007, -62.871287) " points="1023.55401 0 1103.83275 125.742574 943.275261 125.742574"></polygon>
                <polygon id="Triangle" fill="#7FD2FF" transform="translate(1103.832753, 64.128713) scale(1, -1) translate(-1103.832753, -64.128713) " points="1103.83275 1.25742574 1184.1115 127 1023.55401 127"></polygon>
                <polygon id="Triangle" fill="#7FD2FF" transform="translate(1184.111498, 64.128713) scale(1, -1) translate(-1184.111498, -64.128713) " points="1184.1115 1.25742574 1264.39024 127 1103.83275 127"></polygon>
                <polygon id="Triangle" fill="#7FD2FF" transform="translate(1279.442509, 64.128713) scale(1, -1) translate(-1279.442509, -64.128713) " points="1279.44251 1.25742574 1359.72125 127 1199.16376 127"></polygon>
                <polygon id="Triangle" fill="#7FD2FF" transform="translate(1359.721254, 64.128713) scale(1, -1) translate(-1359.721254, -64.128713) " points="1359.72125 1.25742574 1440 127 1279.44251 127"></polygon>
            </g>
            <g id="Group-2" transform="translate(615.000000, 307.000000)" fill-rule="nonzero">
                <path d="M157.895406,193 L52.8468289,193 L0.166746137,97.2271391 L23.1755888,63.0603349 C9.78625263,59.1706649 7.10542736e-14,46.8115889 7.10542736e-14,32.1666667 C7.10542736e-14,14.4015072 14.4005972,-4.26325641e-14 32.1646341,-4.26325641e-14 C42.3984813,-4.26325641e-14 51.5160355,4.77972008 57.4069734,12.2287035 L58.7103036,10.2933333 L152.289696,10.2933333 L153.593027,12.2287035 C159.483964,4.77972008 168.601519,-4.26325641e-14 178.835366,-4.26325641e-14 C196.599403,-4.26325641e-14 211,14.4015072 211,32.1666667 C211,46.8115889 201.213747,59.1706649 187.824411,63.0603349 L210.691375,97.016457 L157.895406,193 Z" id="Combined-Shape" stroke="#5C5C5C" stroke-width="1.5" fill="#FFFFFF"></path>
                <polygon id="Triangle" fill="#5C5C5C" transform="translate(106.500000, 142.000000) scale(1, -1) translate(-106.500000, -142.000000) " points="106.5 124 131 160 82 160"></polygon>
                <path d="M65.5,61.0714286 L65.5,88" id="Line" stroke="#5C5C5C" stroke-width="3" stroke-linecap="square"></path>
                <path d="M145.5,61.0714286 L145.5,88" id="Line" stroke="#5C5C5C" stroke-width="3" stroke-linecap="square"></path>
            </g>
        </g>
    </g>
</svg>