<?xml version="1.0" encoding="UTF-8"?>
<svg width="45px" height="42px" viewBox="0 0 45 42" version="1.1" xmlns="http://www.w3.org/2000/svg" xmlns:xlink="http://www.w3.org/1999/xlink">
    <!-- Generator: Sketch 52.3 (67297) - http://www.bohemiancoding.com/sketch -->
    <title>noun_receipt_26707 copy</title>
    <desc>Created with Sketch.</desc>
    <defs>
        <rect id="path-1" x="0.321851147" y="0.271514423" width="44.5661578" height="40.5627404"></rect>
    </defs>
    <g id="Page-1" stroke="none" stroke-width="1" fill="none" fill-rule="evenodd">
        <g id="Landing-Page" transform="translate(-2037.000000, -18673.000000)">
            <g id="Group-5" transform="translate(313.000000, 263.000000)">
                <g id="Group-91-Copy">
                    <g id="Group-69-Copy">
                        <g id="Group-90-Copy">
                            <g id="Group-89">
                                <g id="Group-4-Copy">
                                    <g id="Group-79-Copy">
                                        <g id="full-inventory-control" transform="translate(243.000000, 18004.500000)">
                                            <g id="noun_receipt_26707-copy" transform="translate(1481.000000, 406.000000)">
                                                <g id="Clipped">
                                                    <mask id="mask-2" fill="white">
                                                        <use xlink:href="#path-1"></use>
                                                    </mask>
                                                    <g id="b"></g>
                                                    <path d="M20.0215095,31.5324519 L13.2739379,31.5324519 L13.2739379,33.5661058 L20.0215095,33.5661058 L20.0215095,31.5324519 Z M25.9703736,27.7718149 L13.2739379,27.7718149 L13.2739379,29.8054688 L25.9703736,29.8054688 L25.9703736,27.7718149 Z M25.9703736,24.0117188 L13.2739379,24.0117188 L13.2739379,26.0459135 L25.9703736,26.0459135 L25.9703736,24.0117188 Z M20.0215095,16.4915264 L13.2739379,16.4915264 L13.2739379,18.5257212 L20.0215095,18.5257212 L20.0215095,16.4915264 Z M25.9703736,12.7314303 L13.2739379,12.7314303 L13.2739379,14.765625 L25.9703736,14.765625 L25.9703736,12.7314303 Z M25.9703736,8.97079327 L13.2739379,8.97079327 L13.2739379,11.004988 L25.9703736,11.004988 L25.9703736,8.97079327 Z M13.2739379,7.24489183 L32.1668155,7.24489183 L32.1668155,5.21123798 L13.2739379,5.21123798 L13.2739379,7.24489183 Z M13.2739379,22.2858173 L32.1668155,22.2858173 L32.1668155,20.2516226 L13.2739379,20.2516226 L13.2739379,22.2858173 Z M42.8632531,8.99134615 L36.1156815,8.99134615 L36.1156815,5.6953125 C36.1156815,3.82283654 37.6269825,2.3046274 39.4908128,2.3046274 C41.3535667,2.3046274 42.8637913,3.82229567 42.8637913,5.6953125 L42.8637913,8.99134615 L42.8632531,8.99134615 Z M35.2776844,2.30570913 C34.7055644,3.0234375 34.312131,3.89044471 34.1625079,4.8391226 L34.1625079,35.7717548 L34.0220344,35.7717548 C33.8406567,37.4716947 32.4240811,38.800601 30.6851161,38.800601 L9.93217569,38.800601 C10.6732945,37.8713942 11.1178581,36.6933894 11.1178581,35.4104567 L11.1178581,27.3926683 L11.1237784,27.3926683 L11.1237784,11.4620192 L11.1512273,11.4620192 L11.1512273,5.69585337 C11.1512273,3.82391827 12.6619901,2.30570913 14.524744,2.30570913 L35.2776844,2.30570913 L35.2776844,2.30570913 Z M9.09364043,35.4104567 C9.09364043,37.2834736 7.58287761,38.8011418 5.71958551,38.8011418 C3.85683164,38.8011418 2.34606881,37.2834736 2.34606881,35.4104567 L2.34606881,32.1155048 L9.09364043,32.1155048 L9.09364043,35.4104567 Z M44.8880089,11.025 L44.8880089,5.69585337 C44.8880089,2.7 42.4714343,0.272055288 39.4902746,0.272055288 L14.524744,0.272055288 C11.5441225,0.272055288 9.12754783,2.7 9.12754783,5.69585337 L9.12754783,13.7125601 L9.1221657,13.9878606 L9.09364043,25.9171875 L9.09364043,25.9171875 L9.09364043,27.9519231 L9.09364043,29.9861178 L9.09364043,32.0208534 L9.09364043,25.9177284 L9.09364043,30.081851 L0.321851147,30.081851 L0.321851147,35.4109976 C0.321851147,38.406851 2.73842581,40.8347957 5.71958551,40.8347957 L30.6851161,40.8347957 C33.6657376,40.8347957 36.0823123,38.406851 36.0823123,35.4109976 L36.0823123,27.3926683 L36.1162197,27.3926683 L36.1162197,15.1885817 L36.1151432,15.1885817 L36.1151432,13.154387 L36.1151432,11.1196514 L36.1151432,9.0859976 L36.1162197,15.1885817 L36.1162197,11.025 L44.8880089,11.025 Z" id="Shape" fill="#53575A" fill-rule="nonzero" mask="url(#mask-2)"></path>
                                                </g>
                                            </g>
                                        </g>
                                    </g>
                                </g>
                            </g>
                        </g>
                    </g>
                </g>
            </g>
        </g>
    </g>
</svg>