<?xml version="1.0" encoding="UTF-8"?>
<svg width="45px" height="52px" viewBox="0 0 45 52" version="1.1" xmlns="http://www.w3.org/2000/svg" xmlns:xlink="http://www.w3.org/1999/xlink">
    <!-- Generator: Sketch 52.3 (67297) - http://www.bohemiancoding.com/sketch -->
    <title>noun_kitchen scale_1188041 copy</title>
    <desc>Created with Sketch.</desc>
    <g id="Page-1" stroke="none" stroke-width="1" fill="none" fill-rule="evenodd">
        <g id="Landing-Page" transform="translate(-1717.000000, -7026.000000)" fill="#53575A" fill-rule="nonzero">
            <g id="Group-5" transform="translate(313.000000, 263.000000)">
                <g id="Group-91-Copy">
                    <g id="Group-69-Copy">
                        <g id="Group-90-Copy">
                            <g id="Group-89">
                                <g id="Group-4-Copy">
                                    <g id="Group-79-Copy">
                                        <g id="Group-61" transform="translate(284.000000, 6458.000000)">
                                            <g id="noun_kitchen-scale_1188041-copy" transform="translate(1120.000000, 305.000000)">
                                                <path d="M39.5464655,8.54910987 C40.3417241,8.54910987 41.2192241,8.05504046 41.6327586,7.37375292 L44.3847414,2.84400647 C44.7028448,2.32041719 44.73,1.7183672 44.4576724,1.23284301 C44.1853448,0.747318828 43.6577586,0.457557993 43.0456034,0.457557993 L2.10103448,0.457557993 C1.48887931,0.457557993 0.960517241,0.747318828 0.688189655,1.23284301 C0.415862069,1.7183672 0.443017241,2.32041719 0.76112069,2.84400647 L3.51387931,7.37452976 C3.92741379,8.05504046 4.80568966,8.54910987 5.60017241,8.54910987 L17.9472414,8.54910987 L17.9472414,11.4987664 L9.41043103,11.4987664 C7.22172414,11.4987664 5.32862069,13.277727 5.18974138,15.469189 L3.26482759,47.8750153 C3.195,48.9641431 3.56043103,49.9950081 4.29284483,50.775731 C5.02525862,51.5580076 6.02922414,51.9883762 7.11931034,51.9883762 L38.0265517,51.9883762 C39.1158621,51.9883762 40.1206034,51.5580076 40.8530172,50.7765078 C41.5862069,49.9942313 41.9516379,48.9641431 41.8825862,47.8796763 L39.9568966,15.4637511 C39.8164655,13.2769502 37.9233621,11.4987664 35.7362069,11.4987664 L27.1993966,11.4987664 L27.1993966,8.54910987 L39.5464655,8.54910987 Z M5.50163793,6.16343823 L3.45103448,2.78885093 L41.6948276,2.78885093 L39.6628448,6.13702571 C39.6372414,6.16576875 39.5650862,6.2069412 39.5231897,6.21859378 L26.0441379,6.21937062 C26.0410345,6.21937062 26.037931,6.21859378 26.0348276,6.21859378 C26.0317241,6.21859378 26.0286207,6.21937062 26.0255172,6.21937062 L19.1234483,6.22014746 C19.1187931,6.22014746 19.1141379,6.21859378 19.1094828,6.21859378 C19.1048276,6.21859378 19.1001724,6.21937062 19.0955172,6.22014746 L5.63043103,6.22092429 C5.59163793,6.21315591 5.51094828,6.16732242 5.50163793,6.16343823 Z M39.155431,49.1824348 C38.8675862,49.4900629 38.4664655,49.6586369 38.0265517,49.6586369 L7.11853448,49.6586369 C6.67862069,49.6586369 6.2775,49.4900629 5.98965517,49.1824348 C5.70181034,48.8755835 5.55905172,48.4646359 5.58775862,48.0187304 L5.60948276,47.6536163 L39.5371552,47.6536163 L39.5581034,48.0241683 C39.5868103,48.463859 39.4432759,48.8755835 39.155431,49.1824348 Z M37.6324138,15.6082431 L39.3975,45.3231002 L5.74836207,45.3231002 L7.51267241,15.6129042 C7.57396552,14.6465168 8.44293103,13.8300593 9.41043103,13.8300593 L35.735431,13.8300593 C36.7021552,13.8300593 37.5718966,14.6465168 37.6324138,15.6082431 Z M24.8718103,11.4995432 L20.2748276,11.4995432 L20.2748276,8.54988671 L24.8718103,8.54988671 L24.8718103,11.4995432 Z" id="Shape"></path>
                                                <path d="M9.90387931,30.8218522 C9.90387931,37.8165078 15.587069,43.5060744 22.572931,43.5060744 C29.5587931,43.5060744 35.2427586,37.8165078 35.2427586,30.8218522 C35.2427586,23.8264197 29.5587931,18.1360762 22.572931,18.1360762 C15.587069,18.1360762 9.90387931,23.8264197 9.90387931,30.8218522 Z M32.9151724,30.8218522 C32.9151724,36.5316166 28.2755172,41.1755584 22.572931,41.1755584 C16.8703448,41.1755584 12.2314655,36.5308398 12.2314655,30.8218522 C12.2314655,25.1113109 16.8703448,20.4665923 22.572931,20.4665923 C28.2755172,20.4665923 32.9151724,25.1113109 32.9151724,30.8218522 Z" id="Shape"></path>
                                                <path d="M21.9755172,31.761827 C22.1710345,31.8884517 22.3906034,31.9490451 22.607069,31.9490451 C22.9880172,31.9490451 23.3619828,31.761827 23.5846552,31.4176875 L28.1987069,24.2925229 C28.5486207,23.75262 28.3942241,23.0309369 27.855,22.6805826 C27.3173276,22.3325589 26.5957759,22.4840424 26.2458621,23.0247222 L21.6318103,30.1491099 C21.2826724,30.6897896 21.4362931,31.4122496 21.9755172,31.761827 Z" id="Shape"></path>
                                            </g>
                                        </g>
                                    </g>
                                </g>
                            </g>
                        </g>
                    </g>
                </g>
            </g>
        </g>
    </g>
</svg>