<?xml version="1.0" encoding="UTF-8"?>
<svg width="45px" height="58px" viewBox="0 0 45 58" version="1.1" xmlns="http://www.w3.org/2000/svg" xmlns:xlink="http://www.w3.org/1999/xlink">
    <!-- Generator: Sketch 52.3 (67297) - http://www.bohemiancoding.com/sketch -->
    <title>noun_Money Bag_2004584 Copy</title>
    <desc>Created with Sketch.</desc>
    <g id="Page-1" stroke="none" stroke-width="1" fill="none" fill-rule="evenodd">
        <g id="Landing-Page" transform="translate(-562.000000, -13454.000000)" fill="#53575A" fill-rule="nonzero">
            <g id="Group-5" transform="translate(313.000000, 263.000000)">
                <g id="Group-91-Copy">
                    <g id="Group-69-Copy">
                        <g id="Group-90-Copy">
                            <g id="Group-89">
                                <g id="Group-4-Copy">
                                    <g id="Group-79-Copy">
                                        <g id="Huge-Savings-Cost-Copy" transform="translate(243.000000, 12983.000000)">
                                            <g id="noun_Money-Bag_2004584-Copy" transform="translate(6.000000, 208.000000)">
                                                <path d="M27.7489361,11.5043205 L17.2602491,11.5043205 L14.017581,3.27693253 L16.354784,3.27693253 L22.5413628,7.75383614 L28.7302396,3.27693253 L31.0525048,3.27693253 L27.7489361,11.5043205 Z M44.9998845,39.041588 C44.9895429,35.9646506 44.1311896,32.9233446 42.3007253,30.2038699 L30.6893995,12.9479639 L35.8900784,0 L27.6765449,0 L22.5413628,3.71600241 L17.4084788,0 L9.21218126,0 L14.3140404,12.9456651 L2.6992674,30.2038699 C0.869952144,32.9233446 0.0115988175,35.9646506 0.000108143751,39.041588 C-0.0343638774,49.1919181 8.17687156,57.4698795 18.247298,57.4698795 L26.7526947,57.4698795 C36.8242702,57.4698795 45.0355056,49.1919181 44.9998845,39.041588 Z M27.986793,14.7801036 L39.5889263,32.0199181 C41.0459437,34.1865325 41.7296388,36.6014169 41.7388313,39.041588 C41.767558,47.3827663 35.030576,54.192947 26.7538438,54.192947 L18.2484471,54.192947 C9.97171479,54.192947 3.23473279,47.3827663 3.26345948,39.041588 C3.27265202,36.6014169 3.95519804,34.1865325 5.41336453,32.0199181 L17.0154978,14.7801036 L27.986793,14.7801036 L27.986793,14.7801036 Z M27.2433465,28.3004675 C26.2689373,27.4096843 25.4209256,26.7303904 24.1293739,26.3269518 L24.1293739,24.214359 L20.8729169,24.214359 L20.8729169,26.2717807 C19.1699991,26.7970554 17.7773294,27.9774867 17.2177336,29.6889398 C16.6029826,31.5751012 17.2349696,33.3888506 18.7207138,34.6554867 C20.3294081,36.0267181 21.6335995,35.7968386 23.3399646,36.353147 C24.1672931,36.6232554 25.0038141,37.3335831 24.6924169,38.2829855 C24.1707403,39.3979012 23.1641573,39.888694 21.9714254,39.5714602 C21.1567366,39.3530747 20.6235693,38.8875687 20.0168618,38.3496506 L17.7577953,40.6714337 C18.7264591,41.5599181 19.5997503,42.2495566 20.8729169,42.6472482 L20.8729169,44.759841 L24.1293739,44.759841 L24.1293739,42.7024193 C25.8345899,42.1805928 27.2134707,41.0139542 27.7845572,39.2852602 C28.6222273,36.7129084 27.0732845,34.242853 24.6016406,33.3451735 C23.6651507,33.0049518 21.7404628,32.8026578 21.0050597,32.317612 C20.464998,31.964747 20.0984455,31.3360265 20.3087249,30.6900651 C20.8189108,29.6084819 21.8082578,29.0774602 23.0331636,29.4015904 C23.8444052,29.6165277 24.3810196,30.0866313 24.9854291,30.6222506 L27.2433465,28.3004675 Z" id="Shape"></path>
                                            </g>
                                        </g>
                                    </g>
                                </g>
                            </g>
                        </g>
                    </g>
                </g>
            </g>
        </g>
    </g>
</svg>