<?xml version="1.0" encoding="UTF-8"?>
<svg width="45px" height="43px" viewBox="0 0 45 43" version="1.1" xmlns="http://www.w3.org/2000/svg" xmlns:xlink="http://www.w3.org/1999/xlink">
    <!-- Generator: Sketch 52.3 (67297) - http://www.bohemiancoding.com/sketch -->
    <title>Group</title>
    <desc>Created with Sketch.</desc>
    <g id="Page-1" stroke="none" stroke-width="1" fill="none" fill-rule="evenodd">
        <g id="Landing-Page" transform="translate(-1956.000000, -11894.000000)" fill="#53575A" fill-rule="nonzero">
            <g id="Group-5" transform="translate(313.000000, 263.000000)">
                <g id="Group-91-Copy">
                    <g id="Group-69-Copy">
                        <g id="Group-90-Copy">
                            <g id="Group-89">
                                <g id="Group-4-Copy">
                                    <g id="Group-79-Copy">
                                        <g id="Variance-at-a-glance-Copy" transform="translate(145.000000, 11428.000000)">
                                            <g id="noun_Arrow-down-up_654471-Copy" transform="translate(1498.000000, 203.000000)">
                                                <g id="Group">
                                                    <path d="M33.8410507,0.174985843 C33.5609544,0.207713298 33.3050212,0.325961314 33.1221252,0.507148764 L23.3447375,10.1700701 C23.0782584,10.4343814 22.9998789,10.7980406 23.1391238,11.1240608 C23.2783688,11.450081 23.6140836,11.688932 24.0198077,11.7506409 C24.4255318,11.8123498 24.839626,11.6875415 25.1061052,11.4232302 L32.8525281,3.76838472 L32.8525281,36.894087 C32.8439355,37.4045791 33.3950402,37.8754774 34.002809,37.8754774 C34.6105777,37.8754774 35.1616842,37.4045791 35.1530899,36.894087 L35.1530899,3.76838472 L42.8995128,11.4232302 C43.3114539,11.8318201 44.0396937,11.8825182 44.5260819,11.5364676 C45.0124701,11.190417 45.0728215,10.57866 44.6608804,10.1700701 L34.8834928,0.507148764 C34.6273634,0.252926032 34.2334522,0.127410485 33.8410507,0.174985843 L33.8410507,0.174985843 Z M10.871379,4.9913482 C10.3061586,5.04352315 9.83468033,5.49517775 9.84691011,5.97273865 L9.84691011,39.0833426 L2.10048718,31.4284971 C1.85182987,31.173565 1.46565664,31.042665 1.07601826,31.0812358 C0.648860777,31.1205515 0.283397639,31.3565803 0.128379585,31.6932537 C-0.026638469,32.0299271 0.0546347987,32.4111115 0.339119558,32.6816572 L10.1165072,42.3445785 C10.3350876,42.5630638 10.6574524,42.6892138 10.997191,42.6892138 C11.3369296,42.6892138 11.6592944,42.5630638 11.8778748,42.3445785 L21.6552625,32.6816572 C22.0672035,32.2730673 22.0068521,31.6613104 21.5204639,31.3152598 C21.0340757,30.9692092 20.3058359,31.0199072 19.8938948,31.4284971 L12.1474719,39.0833426 L12.1474719,5.97273865 C12.1615283,5.42458528 11.5201317,4.93131247 10.871379,4.9913482 Z" id="Shape"></path>
                                                </g>
                                            </g>
                                        </g>
                                    </g>
                                </g>
                            </g>
                        </g>
                    </g>
                </g>
            </g>
        </g>
    </g>
</svg>