<?xml version="1.0" encoding="UTF-8"?>
<svg width="2987px" height="2222px" viewBox="0 0 2987 2222" version="1.1" xmlns="http://www.w3.org/2000/svg" xmlns:xlink="http://www.w3.org/1999/xlink">
    <!-- Generator: Sketch 52.3 (67297) - http://www.bohemiancoding.com/sketch -->
    <title>Group 39</title>
    <desc>Created with Sketch.</desc>
    <defs>
        <rect id="path-1" x="0" y="0" width="2987" height="2219"></rect>
    </defs>
    <g id="Page-1" stroke="none" stroke-width="1" fill="none" fill-rule="evenodd">
        <g id="Group-39">
            <rect id="Rectangle" stroke="#5C5C5C" stroke-width="3" fill="#FFFFFF" fill-rule="nonzero" x="1.5" y="1.5" width="2984" height="2219"></rect>
            <g id="Group-33" transform="translate(773.000000, 392.000000)" fill-rule="nonzero">
                <path d="M1077.58002,1288 L379.980954,1288 L11.7721609,633.411027 L158.165156,420.837883 C66.7876957,394.879878 9.09494702e-13,312.400655 9.09494702e-13,214.666667 C9.09494702e-13,96.1095404 98.2789574,-7.95807864e-13 219.512195,-7.95807864e-13 C289.354565,-7.95807864e-13 351.578632,31.8978217 391.78219,81.6091728 L400.676956,68.6933333 L1039.32305,68.6933333 L1048.21781,81.609173 C1088.42137,31.8978217 1150.64544,-7.95807864e-13 1220.4878,-7.95807864e-13 C1341.72104,-7.95807864e-13 1440,96.1095404 1440,214.666667 C1440,312.400655 1373.2123,394.879878 1281.83484,420.837883 L1437.89374,647.446615 L1077.58002,1288 Z" id="Combined-Shape" stroke="#5C5C5C" stroke-width="11" fill="#FFFFFF"></path>
                <polygon id="Triangle" fill="#5C5C5C" points="724 1069 557 828 891 828"></polygon>
                <path d="M454,408.714286 L454,600" id="Line" stroke="#5C5C5C" stroke-width="13" stroke-linecap="square"></path>
                <path d="M993,408.714286 L993,600" id="Line" stroke="#5C5C5C" stroke-width="13" stroke-linecap="square"></path>
            </g>
            <g id="Group-34">
                <mask id="mask-2" fill="white">
                    <use xlink:href="#path-1"></use>
                </mask>
                <use id="Mask" fill="#FFFFFF" fill-rule="nonzero" opacity="0" xlink:href="#path-1"></use>
                <g mask="url(#mask-2)" fill-rule="nonzero" stroke="#408EFF">
                    <g transform="translate(-427.000000, -1137.000000)">
                        <path d="M174,3643 L2240,685" id="Line-5" stroke-width="8" stroke-linecap="square"></path>
                        <path d="M1610,3491 L3545,685.5" id="Line-5" stroke-width="8" stroke-linecap="square" transform="translate(2578.000000, 2088.500000) scale(-1, 1) translate(-2578.000000, -2088.500000) "></path>
                        <path d="M806,3429.5 L2696,685" id="Line-5" stroke-width="8" stroke-linecap="square" transform="translate(1751.000000, 2057.500000) scale(1, -1) translate(-1751.000000, -2057.500000) "></path>
                        <path d="M923.059542,3195.34772 L2767.6586,0.408434991" id="Line-5" stroke-width="8" stroke-linecap="square" transform="translate(1845.158595, 1597.908435) scale(1, -1) rotate(-300.000000) translate(-1845.158595, -1597.908435) "></path>
                        <path d="M923.059542,4414.34772 L2767.6586,1219.40843" id="Line-5" stroke-width="8" stroke-linecap="square" transform="translate(1845.158595, 2816.908435) scale(1, -1) rotate(-300.000000) translate(-1845.158595, -2816.908435) "></path>
                        <path d="M947.059542,3765.34772 L2791.6586,570.408435" id="Line-5" stroke-width="8" stroke-linecap="square" transform="translate(1869.158595, 2167.908435) scale(1, -1) rotate(-300.000000) translate(-1869.158595, -2167.908435) "></path>
                        <path d="M947.059542,3526.34772 L2791.6586,331.408435" id="Line-5" stroke-width="8" stroke-linecap="square" transform="translate(1869.158595, 1928.908435) scale(1, -1) rotate(-300.000000) translate(-1869.158595, -1928.908435) "></path>
                        <path d="M1174,3393.5 L3044,686" id="Line-5" stroke-width="8" stroke-linecap="square" transform="translate(2109.000000, 2039.500000) scale(-1, -1) translate(-2109.000000, -2039.500000) "></path>
                        <path d="M1888,3515 L3461,697" id="Line-5" stroke-width="8" stroke-linecap="square" transform="translate(2674.500000, 2106.500000) scale(-1, -1) translate(-2674.500000, -2106.500000) "></path>
                        <path d="M450,3610 L2023,792" id="Line-5" stroke-width="8" stroke-linecap="square" transform="translate(1236.500000, 2201.500000) scale(1, -1) translate(-1236.500000, -2201.500000) "></path>
                        <path d="M606,3429.5 L2503,685" id="Line-5" stroke-width="8" stroke-linecap="square" transform="translate(1554.500000, 2057.500000) scale(1, -1) translate(-1554.500000, -2057.500000) "></path>
                        <path d="M1350,3429.5 L3243,685" id="Line-5" stroke-width="8" stroke-linecap="square" transform="translate(2296.500000, 2057.500000) scale(-1, -1) translate(-2296.500000, -2057.500000) "></path>
                        <path d="M947.059542,3954.34772 L2791.6586,759.408435" id="Line-5" stroke-width="8" stroke-linecap="square" transform="translate(1869.158595, 2356.908435) scale(1, -1) rotate(-300.000000) translate(-1869.158595, -2356.908435) "></path>
                        <ellipse id="Oval" stroke-width="6" cx="1422" cy="1745" rx="217" ry="212"></ellipse>
                        <ellipse id="Oval" stroke-width="6" cx="2420" cy="1743" rx="217" ry="212"></ellipse>
                    </g>
                </g>
            </g>
        </g>
    </g>
</svg>