<?xml version="1.0" encoding="UTF-8"?>
<svg width="2987px" height="2222px" viewBox="0 0 2987 2222" version="1.1" xmlns="http://www.w3.org/2000/svg" xmlns:xlink="http://www.w3.org/1999/xlink">
    <!-- Generator: Sketch 52.3 (67297) - http://www.bohemiancoding.com/sketch -->
    <title>Group 37</title>
    <desc>Created with Sketch.</desc>
    <g id="Page-1" stroke="none" stroke-width="1" fill="none" fill-rule="evenodd">
        <g id="Group-37" fill-rule="nonzero">
            <rect id="Rectangle" stroke="#5C5C5C" stroke-width="3" fill="#FFFFFF" x="1.5" y="1.5" width="2984" height="2219"></rect>
            <g id="Group-33" transform="translate(773.000000, 395.000000)">
                <path d="M1077.58002,1288 L379.980954,1288 L11.7721609,633.411027 L158.165156,420.837883 C66.7876957,394.879878 9.09494702e-13,312.400655 9.09494702e-13,214.666667 C9.09494702e-13,96.1095404 98.2789574,-7.95807864e-13 219.512195,-7.95807864e-13 C289.354565,-7.95807864e-13 351.578632,31.8978217 391.78219,81.6091728 L400.676956,68.6933333 L1039.32305,68.6933333 L1048.21781,81.609173 C1088.42137,31.8978217 1150.64544,-7.95807864e-13 1220.4878,-7.95807864e-13 C1341.72104,-7.95807864e-13 1440,96.1095404 1440,214.666667 C1440,312.400655 1373.2123,394.879878 1281.83484,420.837883 L1437.89374,647.446615 L1077.58002,1288 Z" id="Combined-Shape" stroke="#5C5C5C" stroke-width="11" fill="#FFFFFF"></path>
                <polygon id="Triangle" fill="#5C5C5C" points="724 1069 557 828 891 828"></polygon>
                <path d="M454,408.714286 L454,600" id="Line" stroke="#5C5C5C" stroke-width="13" stroke-linecap="square"></path>
                <path d="M993,408.714286 L993,600" id="Line" stroke="#5C5C5C" stroke-width="13" stroke-linecap="square"></path>
            </g>
        </g>
    </g>
</svg>