<?xml version="1.0" encoding="UTF-8"?>
<svg width="69px" height="68px" viewBox="0 0 69 68" version="1.1" xmlns="http://www.w3.org/2000/svg" xmlns:xlink="http://www.w3.org/1999/xlink">
    <!-- Generator: Sketch 52.3 (67297) - http://www.bohemiancoding.com/sketch -->
    <title>Group 7</title>
    <desc>Created with Sketch.</desc>
    <g id="Page-1" stroke="none" stroke-width="1" fill="none" fill-rule="evenodd">
        <g id="Mobile-Landing-Page" transform="translate(-2954.000000, -352.000000)" fill="#53575A">
            <g id="Group-45" transform="translate(1965.000000, 301.000000)">
                <g id="Group-30">
                    <g id="Group-2" transform="translate(52.000000, 30.000000)">
                        <g id="Group-7" transform="translate(936.000000, 19.000000)">
                            <path d="M-10.7315464,36.0530541 C-10.7315464,33.8439151 -8.94407085,32.0530541 -6.72320866,32.0530541 L77.8534068,32.0530541 C80.0671505,32.0530541 81.8617445,33.8484102 81.8617445,36.0530541 L81.8617445,36.0530541 C81.8617445,38.2621931 80.0742689,40.0530541 77.8534068,40.0530541 L-6.72320866,40.0530541 C-8.93695245,40.0530541 -10.7315464,38.2576979 -10.7315464,36.0530541 L-10.7315464,36.0530541 Z" id="Rectangle-25" transform="translate(35.565099, 36.053054) rotate(-315.000000) translate(-35.565099, -36.053054) "></path>
                            <path d="M-10.7315464,36.0530541 C-10.7315464,33.8439151 -8.94407085,32.0530541 -6.72320866,32.0530541 L77.8534068,32.0530541 C80.0671505,32.0530541 81.8617445,33.8484102 81.8617445,36.0530541 L81.8617445,36.0530541 C81.8617445,38.2621931 80.0742689,40.0530541 77.8534068,40.0530541 L-6.72320866,40.0530541 C-8.93695245,40.0530541 -10.7315464,38.2576979 -10.7315464,36.0530541 L-10.7315464,36.0530541 Z" id="Rectangle-25" transform="translate(35.565099, 36.053054) scale(-1, 1) rotate(-315.000000) translate(-35.565099, -36.053054) "></path>
                        </g>
                    </g>
                </g>
            </g>
        </g>
    </g>
</svg>