<?xml version="1.0" encoding="UTF-8"?>
<svg width="93px" height="62px" viewBox="0 0 93 62" version="1.1" xmlns="http://www.w3.org/2000/svg" xmlns:xlink="http://www.w3.org/1999/xlink">
    <!-- Generator: Sketch 52.3 (67297) - http://www.bohemiancoding.com/sketch -->
    <title>Group 5</title>
    <desc>Created with Sketch.</desc>
    <g id="Page-1" stroke="none" stroke-width="1" fill="none" fill-rule="evenodd">
        <g id="Mobile-Landing-Page" transform="translate(-1383.000000, -361.000000)" fill="#53575A">
            <g id="Group-6" transform="translate(414.000000, 301.000000)">
                <g id="Group-4">
                    <g id="Group-88" transform="translate(1.000000, 0.000000)">
                        <g id="Group-15">
                            <g id="Group-13">
                                <g id="mobile">
                                    <g id="Group-92">
                                        <g id="Group-2-Copy-2" transform="translate(52.000000, 30.000000)">
                                            <g id="Group-5" transform="translate(916.000000, 30.000000)">
                                                <path d="M0.406709172,4 C0.406709172,1.790861 2.19418469,0 4.41504688,0 L88.9916623,0 C91.2054061,0 93,1.79535615 93,4 L93,4 C93,6.209139 91.2125245,8 88.9916623,8 L4.41504688,8 C2.20130309,8 0.406709172,6.20464385 0.406709172,4 L0.406709172,4 Z" id="Rectangle-25"></path>
                                                <path d="M0.406709172,31 C0.406709172,28.790861 2.19418469,27 4.41504688,27 L88.9916623,27 C91.2054061,27 93,28.7953562 93,31 L93,31 C93,33.209139 91.2125245,35 88.9916623,35 L4.41504688,35 C2.20130309,35 0.406709172,33.2046438 0.406709172,31 L0.406709172,31 Z" id="Rectangle-25"></path>
                                                <path d="M0.406709172,58 C0.406709172,55.790861 2.19418469,54 4.41504688,54 L88.9916623,54 C91.2054061,54 93,55.7953562 93,58 L93,58 C93,60.209139 91.2125245,62 88.9916623,62 L4.41504688,62 C2.20130309,62 0.406709172,60.2046438 0.406709172,58 L0.406709172,58 Z" id="Rectangle-25"></path>
                                            </g>
                                        </g>
                                    </g>
                                </g>
                            </g>
                        </g>
                    </g>
                </g>
            </g>
        </g>
    </g>
</svg>