<?xml version="1.0" encoding="UTF-8"?>
<svg width="445px" height="448px" viewBox="0 0 445 448" version="1.1" xmlns="http://www.w3.org/2000/svg" xmlns:xlink="http://www.w3.org/1999/xlink">
    <!-- Generator: Sketch 52.3 (67297) - http://www.bohemiancoding.com/sketch -->
    <title>Group 41</title>
    <desc>Created with Sketch.</desc>
    <g id="Page-1" stroke="none" stroke-width="1" fill="none" fill-rule="evenodd">
        <g id="Group-41" fill-rule="nonzero">
            <rect id="Rectangle" fill="#FFFFFF" x="0" y="0" width="445" height="448"></rect>
            <g id="Group-8" transform="translate(145.000000, 47.000000)">
                <path d="M138.651467,344.028558 C136.561032,356.292751 109.063024,366 75.4482167,366 C41.8334092,366 14.3354019,356.292751 12.2449661,344.028558 L12.117284,344.028558 L3.41060513e-13,141 L151,146.389222 L138.77915,344.028558 L138.651467,344.028558 Z" id="Combined-Shape" stroke="#7A99B8" stroke-width="5" fill="#BDDEFF"></path>
                <path d="M151,143.660426 C151,101.874326 117.197499,68 75.5,68 C33.8025014,68 0,101.874326 0,143.660426 C0,185.446525 151,185.446525 151,143.660426 Z" id="Oval" stroke="#7A99B8" stroke-width="5" fill="#BDDEFF"></path>
                <ellipse id="Oval" stroke="#7A99B8" stroke-width="5" fill="#BDDEFF" cx="75.5" cy="78.5" rx="24.5" ry="10.5"></ellipse>
                <rect id="Rectangle" fill="#2C9E6E" x="67" y="0" width="13" height="90"></rect>
                <circle id="Oval" fill="#00A16A" cx="75.5" cy="259.5" r="50.5"></circle>
            </g>
        </g>
    </g>
</svg>