<?xml version="1.0" encoding="UTF-8"?>
<svg width="984px" height="204px" viewBox="0 0 984 204" version="1.1" xmlns="http://www.w3.org/2000/svg" xmlns:xlink="http://www.w3.org/1999/xlink">
    <!-- Generator: Sketch 52.3 (67297) - http://www.bohemiancoding.com/sketch -->
    <title>MADE + MADE 66</title>
    <desc>Created with Sketch.</desc>
    <defs>
        <linearGradient x1="50%" y1="0%" x2="50%" y2="100%" id="linearGradient-1">
            <stop stop-color="#00FFFE" offset="0%"></stop>
            <stop stop-color="#FF00FA" offset="100%"></stop>
        </linearGradient>
        <linearGradient x1="50%" y1="0%" x2="50%" y2="100%" id="linearGradient-2">
            <stop stop-color="#1A1A1A" offset="0%"></stop>
            <stop stop-color="#0D0D0D" offset="100%"></stop>
        </linearGradient>
    </defs>
    <g id="Page-1" stroke="none" stroke-width="1" fill="none" fill-rule="evenodd">
        <g id="MADE-+-MADE-66">
            <path d="M85.0795685,88.8 L88.2968631,204 L23.3660083,204 L23.3660083,0.096 L114.327701,0.096 L151.765311,109.824 L153.227718,109.824 L185.693145,0.096 L279.579651,0.096 L279.579651,204 L212.016465,204 L214.063834,89.376 L212.308946,89.088 L173.701411,204 L124.564548,204 L86.5419751,88.8 L85.0795685,88.8 Z M396.117252,0.096 L470.115028,0.096 L550.839875,204 L475.087211,204 L464.265402,174.048 L398.457103,174.048 L388.220256,204 L314.514962,204 L396.117252,0.096 Z M432.092456,71.232 L415.128539,121.632 L448.763891,121.632 L432.092456,71.232 Z M585.775185,204 L585.775185,0.096 L662.990256,0.096 C679.369292,0.096 695.016886,1.67998416 709.933509,4.848 C724.850131,8.01601584 738.011659,13.4879611 749.418488,21.264 C760.825317,29.0400389 769.940894,39.3599357 776.765492,52.224 C783.590091,65.0880643 787.002339,81.3119021 787.002339,100.896 C787.002339,118.752089 783.73633,134.207935 777.204214,147.264 C770.672098,160.320065 761.946493,171.023958 751.027135,179.376 C740.107778,187.728042 727.531206,193.91998 713.297044,197.952 C699.062882,201.98402 684.243976,204 668.839882,204 L585.775185,204 Z M652.753409,58.272 L652.753409,145.248 L665.622588,145.248 C682.001624,145.248 694.578195,141.744035 703.352679,134.736 C712.127163,127.727965 716.514339,116.25608 716.514339,100.32 C716.514339,87.0719338 712.127163,76.752037 703.352679,69.36 C694.578195,61.967963 682.879059,58.272 668.25492,58.272 L652.753409,58.272 Z M836.561715,0.096 L979.000122,0.096 L979.000122,57.12 L902.077533,57.12 L902.077533,74.688 L974.320421,74.688 L974.320421,127.968 L902.077533,127.968 L902.077533,146.976 L983.972305,146.976 L983.972305,204 L836.561715,204 L836.561715,0.096 Z" id="MADE" fill="url(#linearGradient-1)"></path>
            <path d="M62.2294647,88.8 L65.4467593,204 L0.515904564,204 L0.515904564,0.096 L91.4775975,0.096 L128.915207,109.824 L130.377614,109.824 L162.843041,0.096 L256.729548,0.096 L256.729548,204 L189.166361,204 L191.21373,89.376 L189.458842,89.088 L150.851307,204 L101.714444,204 L63.6918714,88.8 L62.2294647,88.8 Z M373.267108,0.096 L447.264884,0.096 L527.98973,204 L452.237066,204 L441.415257,174.048 L375.606959,174.048 L365.370112,204 L291.664817,204 L373.267108,0.096 Z M409.242311,71.232 L392.278394,121.632 L425.913747,121.632 L409.242311,71.232 Z M562.925,204 L562.925,0.096 L640.140071,0.096 C656.519107,0.096 672.166701,1.67998416 687.083324,4.848 C701.999946,8.01601584 715.161474,13.4879611 726.568303,21.264 C737.975132,29.0400389 747.090709,39.3599357 753.915307,52.224 C760.739905,65.0880643 764.152154,81.3119021 764.152154,100.896 C764.152154,118.752089 760.886145,134.207935 754.354029,147.264 C747.821913,160.320065 739.096308,171.023958 728.17695,179.376 C717.257593,187.728042 704.681021,193.91998 690.446859,197.952 C676.212696,201.98402 661.393791,204 645.989697,204 L562.925,204 Z M629.903224,58.272 L629.903224,145.248 L642.772402,145.248 C659.151439,145.248 671.72801,141.744035 680.502494,134.736 C689.276977,127.727965 693.664154,116.25608 693.664154,100.32 C693.664154,87.0719338 689.276977,76.752037 680.502494,69.36 C671.72801,61.967963 660.028874,58.272 645.404734,58.272 L629.903224,58.272 Z M812.2897,0.096 L954.728107,0.096 L954.728107,57.12 L877.805517,57.12 L877.805517,74.688 L950.048405,74.688 L950.048405,127.968 L877.805517,127.968 L877.805517,146.976 L959.700289,146.976 L959.700289,204 L812.2897,204 L812.2897,0.096 Z" id="MADE" fill="url(#linearGradient-2)"></path>
        </g>
    </g>
</svg>