<?xml version="1.0" encoding="UTF-8"?>
<svg width="969px" height="204px" viewBox="0 0 969 204" version="1.1" xmlns="http://www.w3.org/2000/svg" xmlns:xlink="http://www.w3.org/1999/xlink">
    <!-- Generator: Sketch 52.3 (67297) - http://www.bohemiancoding.com/sketch -->
    <title>MADE + MADE 70</title>
    <desc>Created with Sketch.</desc>
    <defs>
        <linearGradient x1="50%" y1="0%" x2="50%" y2="100%" id="linearGradient-1">
            <stop stop-color="#33FFF2" offset="0%"></stop>
            <stop stop-color="#8BFF3C" offset="100%"></stop>
        </linearGradient>
        <linearGradient x1="50%" y1="0%" x2="50%" y2="100%" id="linearGradient-2">
            <stop stop-color="#1A1A1A" offset="0%"></stop>
            <stop stop-color="#0D0D0D" offset="100%"></stop>
        </linearGradient>
    </defs>
    <g id="Page-1" stroke="none" stroke-width="1" fill="none" fill-rule="evenodd">
        <g id="MADE-+-MADE-70">
            <path d="M83.776,88.8 L86.944,204 L23.008,204 L23.008,0.096 L112.576,0.096 L149.44,109.824 L150.88,109.824 L182.848,0.096 L275.296,0.096 L275.296,204 L208.768,204 L210.784,89.376 L209.056,89.088 L171.04,204 L122.656,204 L85.216,88.8 L83.776,88.8 Z M390.04804,0.096 L462.91204,0.096 L542.40004,204 L467.80804,204 L457.15204,174.048 L392.35204,174.048 L382.27204,204 L309.69604,204 L390.04804,0.096 Z M425.47204,71.232 L408.76804,121.632 L441.88804,121.632 L425.47204,71.232 Z M576.80008,204 L576.80008,0.096 L652.83208,0.096 C668.960161,0.096 684.368007,1.67998416 699.05608,4.848 C713.744154,8.01601584 726.704024,13.4879611 737.93608,21.264 C749.168136,29.0400389 758.144047,39.3599357 764.86408,52.224 C771.584114,65.0880643 774.94408,81.3119021 774.94408,100.896 C774.94408,118.752089 771.728112,134.207935 765.29608,147.264 C758.864048,160.320065 750.272134,171.023958 739.52008,179.376 C728.768026,187.728042 716.38415,193.91998 702.36808,197.952 C688.35201,201.98402 673.760156,204 658.59208,204 L576.80008,204 Z M642.75208,58.272 L642.75208,145.248 L655.42408,145.248 C671.552161,145.248 683.936037,141.744035 692.57608,134.736 C701.216123,127.727965 705.53608,116.25608 705.53608,100.32 C705.53608,87.0719338 701.216123,76.752037 692.57608,69.36 C683.936037,61.967963 672.416152,58.272 658.01608,58.272 L642.75208,58.272 Z M823.74412,0.096 L964.00012,0.096 L964.00012,57.12 L888.25612,57.12 L888.25612,74.688 L959.39212,74.688 L959.39212,127.968 L888.25612,127.968 L888.25612,146.976 L968.89612,146.976 L968.89612,204 L823.74412,204 L823.74412,0.096 Z" id="MADE" fill="url(#linearGradient-1)"></path>
            <path d="M61.276,88.8 L64.444,204 L0.508,204 L0.508,0.096 L90.076,0.096 L126.94,109.824 L128.38,109.824 L160.348,0.096 L252.796,0.096 L252.796,204 L186.268,204 L188.284,89.376 L186.556,89.088 L148.54,204 L100.156,204 L62.716,88.8 L61.276,88.8 Z M367.548,0.096 L440.412,0.096 L519.9,204 L445.308,204 L434.652,174.048 L369.852,174.048 L359.772,204 L287.196,204 L367.548,0.096 Z M402.972,71.232 L386.268,121.632 L419.388,121.632 L402.972,71.232 Z M554.3,204 L554.3,0.096 L630.332,0.096 C646.460081,0.096 661.867927,1.67998416 676.556,4.848 C691.244073,8.01601584 704.203944,13.4879611 715.436,21.264 C726.668056,29.0400389 735.643966,39.3599357 742.364,52.224 C749.084034,65.0880643 752.444,81.3119021 752.444,100.896 C752.444,118.752089 749.228032,134.207935 742.796,147.264 C736.363968,160.320065 727.772054,171.023958 717.02,179.376 C706.267946,187.728042 693.88407,193.91998 679.868,197.952 C665.85193,201.98402 651.260076,204 636.092,204 L554.3,204 Z M620.252,58.272 L620.252,145.248 L632.924,145.248 C649.052081,145.248 661.435957,141.744035 670.076,134.736 C678.716043,127.727965 683.036,116.25608 683.036,100.32 C683.036,87.0719338 678.716043,76.752037 670.076,69.36 C661.435957,61.967963 649.916072,58.272 635.516,58.272 L620.252,58.272 Z M799.843995,0.096 L940.099995,0.096 L940.099995,57.12 L864.355995,57.12 L864.355995,74.688 L935.491995,74.688 L935.491995,127.968 L864.355995,127.968 L864.355995,146.976 L944.995995,146.976 L944.995995,204 L799.843995,204 L799.843995,0.096 Z" id="MADE" fill="url(#linearGradient-2)"></path>
        </g>
    </g>
</svg>