<?xml version="1.0" encoding="UTF-8"?>
<svg width="984px" height="204px" viewBox="0 0 984 204" version="1.1" xmlns="http://www.w3.org/2000/svg" xmlns:xlink="http://www.w3.org/1999/xlink">
    <!-- Generator: Sketch 52.3 (67297) - http://www.bohemiancoding.com/sketch -->
    <title>MADE + MADE 23</title>
    <desc>Created with Sketch.</desc>
    <defs>
        <linearGradient x1="50%" y1="3.10919436%" x2="50%" y2="100%" id="linearGradient-1">
            <stop stop-color="#59AEDF" offset="0%"></stop>
            <stop stop-color="#7099D7" offset="100%"></stop>
        </linearGradient>
        <linearGradient x1="50%" y1="0%" x2="50%" y2="100%" id="linearGradient-2">
            <stop stop-color="#2398DB" offset="0%"></stop>
            <stop stop-color="#0F5781" offset="100%"></stop>
        </linearGradient>
    </defs>
    <g id="Page-1" stroke="none" stroke-width="1" fill="none" fill-rule="evenodd">
        <g id="MADE-+-MADE-23">
            <path d="M97.4622492,88.8 L100.639878,204 L36.5095441,204 L36.5095441,0.096 L126.349787,0.096 L163.325836,109.824 L164.770213,109.824 L196.83538,0.096 L289.564377,0.096 L289.564377,204 L222.834164,204 L224.856292,89.376 L223.12304,89.088 L184.991489,204 L136.460426,204 L98.9066261,88.8 L97.4622492,88.8 Z M404.665167,0.096 L477.750638,0.096 L557.480243,204 L482.66152,204 L471.973131,174.048 L406.97617,174.048 L396.865532,204 L324.068936,204 L404.665167,0.096 Z M440.196839,71.232 L423.442067,121.632 L456.662736,121.632 L440.196839,71.232 Z M591.984802,204 L591.984802,0.096 L668.247903,0.096 C684.425005,0.096 699.879683,1.67998416 714.612401,4.848 C729.345119,8.01601584 742.344381,13.4879611 753.610578,21.264 C764.876774,29.0400389 773.879966,39.3599357 780.620426,52.224 C787.360885,65.0880643 790.731064,81.3119021 790.731064,100.896 C790.731064,118.752089 787.505321,134.207935 781.053739,147.264 C774.602156,160.320065 765.984127,171.023958 755.199392,179.376 C744.414657,187.728042 731.99314,193.91998 717.934468,197.952 C703.875796,201.98402 689.23959,204 674.02541,204 L591.984802,204 Z M658.137264,58.272 L658.137264,145.248 L670.847781,145.248 C687.024883,145.248 699.4464,141.744035 708.112705,134.736 C716.77901,127.727965 721.112097,116.25608 721.112097,100.32 C721.112097,87.0719338 716.77901,76.752037 708.112705,69.36 C699.4464,61.967963 687.891501,58.272 673.44766,58.272 L658.137264,58.272 Z M838.275131,0.096 L978.957441,0.096 L978.957441,57.12 L902.983217,57.12 L902.983217,74.688 L974.335435,74.688 L974.335435,127.968 L902.983217,127.968 L902.983217,146.976 L983.868323,146.976 L983.868323,204 L838.275131,204 L838.275131,0.096 Z" id="MADE" fill="url(#linearGradient-1)"></path>
            <path d="M61.8543465,88.8 L65.0319757,204 L0.901641337,204 L0.901641337,0.096 L90.7418845,0.096 L127.717933,109.824 L129.16231,109.824 L161.227477,0.096 L253.956474,0.096 L253.956474,204 L187.226261,204 L189.248389,89.376 L187.515137,89.088 L149.383587,204 L100.852523,204 L63.2987234,88.8 L61.8543465,88.8 Z M369.057305,0.096 L442.142776,0.096 L521.872381,204 L447.053657,204 L436.365268,174.048 L371.368308,174.048 L361.257669,204 L288.461074,204 L369.057305,0.096 Z M404.588976,71.232 L387.834204,121.632 L421.054873,121.632 L404.588976,71.232 Z M556.37698,204 L556.37698,0.096 L632.64008,0.096 C648.817183,0.096 664.271861,1.67998416 679.004579,4.848 C693.737297,8.01601584 706.736559,13.4879611 718.002755,21.264 C729.268951,29.0400389 738.272144,39.3599357 745.012603,52.224 C751.753062,65.0880643 755.123241,81.3119021 755.123241,100.896 C755.123241,118.752089 751.897499,134.207935 745.445916,147.264 C738.994334,160.320065 730.376304,171.023958 719.59157,179.376 C708.806835,187.728042 696.385318,193.91998 682.326646,197.952 C668.267974,201.98402 653.631767,204 638.417588,204 L556.37698,204 Z M622.529442,58.272 L622.529442,145.248 L635.239959,145.248 C651.417061,145.248 663.838578,141.744035 672.504883,134.736 C681.171188,127.727965 685.504275,116.25608 685.504275,100.32 C685.504275,87.0719338 681.171188,76.752037 672.504883,69.36 C663.838578,61.967963 652.283678,58.272 637.839837,58.272 L622.529442,58.272 Z M804.07161,0.096 L944.75392,0.096 L944.75392,57.12 L868.779695,57.12 L868.779695,74.688 L940.131914,74.688 L940.131914,127.968 L868.779695,127.968 L868.779695,146.976 L949.664801,146.976 L949.664801,204 L804.07161,204 L804.07161,0.096 Z" id="MADE" fill="url(#linearGradient-2)"></path>
        </g>
    </g>
</svg>