<?xml version="1.0" encoding="UTF-8"?>
<svg width="977px" height="204px" viewBox="0 0 977 204" version="1.1" xmlns="http://www.w3.org/2000/svg" xmlns:xlink="http://www.w3.org/1999/xlink">
    <!-- Generator: Sketch 52.3 (67297) - http://www.bohemiancoding.com/sketch -->
    <title>MADE + MADE 35</title>
    <desc>Created with Sketch.</desc>
    <g id="Page-1" stroke="none" stroke-width="1" fill="none" fill-rule="evenodd">
        <g id="MADE-+-MADE-35">
            <path d="M91.776,88.8 L94.944,204 L31.008,204 L31.008,0.096 L120.576,0.096 L157.44,109.824 L158.88,109.824 L190.848,0.096 L283.296,0.096 L283.296,204 L216.768,204 L218.784,89.376 L217.056,89.088 L179.04,204 L130.656,204 L93.216,88.8 L91.776,88.8 Z M398.04804,0.096 L470.91204,0.096 L550.40004,204 L475.80804,204 L465.15204,174.048 L400.35204,174.048 L390.27204,204 L317.69604,204 L398.04804,0.096 Z M433.47204,71.232 L416.76804,121.632 L449.88804,121.632 L433.47204,71.232 Z M584.80008,204 L584.80008,0.096 L660.83208,0.096 C676.960161,0.096 692.368007,1.67998416 707.05608,4.848 C721.744154,8.01601584 734.704024,13.4879611 745.93608,21.264 C757.168136,29.0400389 766.144047,39.3599357 772.86408,52.224 C779.584114,65.0880643 782.94408,81.3119021 782.94408,100.896 C782.94408,118.752089 779.728112,134.207935 773.29608,147.264 C766.864048,160.320065 758.272134,171.023958 747.52008,179.376 C736.768026,187.728042 724.38415,193.91998 710.36808,197.952 C696.35201,201.98402 681.760156,204 666.59208,204 L584.80008,204 Z M650.75208,58.272 L650.75208,145.248 L663.42408,145.248 C679.552161,145.248 691.936037,141.744035 700.57608,134.736 C709.216123,127.727965 713.53608,116.25608 713.53608,100.32 C713.53608,87.0719338 709.216123,76.752037 700.57608,69.36 C691.936037,61.967963 680.416152,58.272 666.01608,58.272 L650.75208,58.272 Z M831.74412,0.096 L972.00012,0.096 L972.00012,57.12 L896.25612,57.12 L896.25612,74.688 L967.39212,74.688 L967.39212,127.968 L896.25612,127.968 L896.25612,146.976 L976.89612,146.976 L976.89612,204 L831.74412,204 L831.74412,0.096 Z" id="MADE" fill="#154EA1"></path>
            <path d="M61.276,88.8 L64.444,204 L0.508,204 L0.508,0.096 L90.076,0.096 L126.94,109.824 L128.38,109.824 L160.348,0.096 L252.796,0.096 L252.796,204 L186.268,204 L188.284,89.376 L186.556,89.088 L148.54,204 L100.156,204 L62.716,88.8 L61.276,88.8 Z M367.548,0.096 L440.412,0.096 L519.9,204 L445.308,204 L434.652,174.048 L369.852,174.048 L359.772,204 L287.196,204 L367.548,0.096 Z M402.972,71.232 L386.268,121.632 L419.388,121.632 L402.972,71.232 Z M554.3,204 L554.3,0.096 L630.332,0.096 C646.460081,0.096 661.867927,1.67998416 676.556,4.848 C691.244073,8.01601584 704.203944,13.4879611 715.436,21.264 C726.668056,29.0400389 735.643966,39.3599357 742.364,52.224 C749.084034,65.0880643 752.444,81.3119021 752.444,100.896 C752.444,118.752089 749.228032,134.207935 742.796,147.264 C736.363968,160.320065 727.772054,171.023958 717.02,179.376 C706.267946,187.728042 693.88407,193.91998 679.868,197.952 C665.85193,201.98402 651.260076,204 636.092,204 L554.3,204 Z M620.252,58.272 L620.252,145.248 L632.924,145.248 C649.052081,145.248 661.435957,141.744035 670.076,134.736 C678.716043,127.727965 683.036,116.25608 683.036,100.32 C683.036,87.0719338 678.716043,76.752037 670.076,69.36 C661.435957,61.967963 649.916072,58.272 635.516,58.272 L620.252,58.272 Z M799.843995,0.096 L940.099995,0.096 L940.099995,57.12 L864.355995,57.12 L864.355995,74.688 L935.491995,74.688 L935.491995,127.968 L864.355995,127.968 L864.355995,146.976 L944.995995,146.976 L944.995995,204 L799.843995,204 L799.843995,0.096 Z" id="MADE" fill="#2D81FE"></path>
        </g>
    </g>
</svg>