<?xml version="1.0" encoding="UTF-8"?>
<svg width="946px" height="204px" viewBox="0 0 946 204" version="1.1" xmlns="http://www.w3.org/2000/svg" xmlns:xlink="http://www.w3.org/1999/xlink">
    <!-- Generator: Sketch 52.3 (67297) - http://www.bohemiancoding.com/sketch -->
    <title>MADE 4</title>
    <desc>Created with Sketch.</desc>
    <defs>
        <linearGradient x1="50%" y1="0%" x2="50%" y2="100%" id="linearGradient-1">
            <stop stop-color="#FAFD1F" offset="0%"></stop>
            <stop stop-color="#3DFF3C" offset="100%"></stop>
        </linearGradient>
    </defs>
    <g id="Page-1" stroke="none" stroke-width="1" fill="none" fill-rule="evenodd">
        <path d="M60.768,88.704 L63.936,203.904 L0,203.904 L0,0 L89.568,0 L126.432,109.728 L127.872,109.728 L159.84,0 L252.288,0 L252.288,203.904 L185.76,203.904 L187.776,89.28 L186.048,88.992 L148.032,203.904 L99.648,203.904 L62.208,88.704 L60.768,88.704 Z M367.04004,0 L439.90404,0 L519.39204,203.904 L444.80004,203.904 L434.14404,173.952 L369.34404,173.952 L359.26404,203.904 L286.68804,203.904 L367.04004,0 Z M402.46404,71.136 L385.76004,121.536 L418.88004,121.536 L402.46404,71.136 Z M553.79208,203.904 L553.79208,0 L629.82408,0 C645.952161,0 661.360007,1.58398416 676.04808,4.752 C690.736154,7.92001584 703.696024,13.3919611 714.92808,21.168 C726.160136,28.9440389 735.136047,39.2639357 741.85608,52.128 C748.576114,64.9920643 751.93608,81.2159021 751.93608,100.8 C751.93608,118.656089 748.720112,134.111935 742.28808,147.168 C735.856048,160.224065 727.264134,170.927958 716.51208,179.28 C705.760026,187.632042 693.37615,193.82398 679.36008,197.856 C665.34401,201.88802 650.752156,203.904 635.58408,203.904 L553.79208,203.904 Z M619.74408,58.176 L619.74408,145.152 L632.41608,145.152 C648.544161,145.152 660.928037,141.648035 669.56808,134.64 C678.208123,127.631965 682.52808,116.16008 682.52808,100.224 C682.52808,86.9759338 678.208123,76.656037 669.56808,69.264 C660.928037,61.871963 649.408152,58.176 635.00808,58.176 L619.74408,58.176 Z M800.73612,0 L940.99212,0 L940.99212,57.024 L865.24812,57.024 L865.24812,74.592 L936.38412,74.592 L936.38412,127.872 L865.24812,127.872 L865.24812,146.88 L945.88812,146.88 L945.88812,203.904 L800.73612,203.904 L800.73612,0 Z" id="MADE-4" fill="url(#linearGradient-1)"></path>
    </g>
</svg>