<?xml version="1.0" encoding="UTF-8"?>
<svg width="1015px" height="204px" viewBox="0 0 1015 204" version="1.1" xmlns="http://www.w3.org/2000/svg" xmlns:xlink="http://www.w3.org/1999/xlink">
    <!-- Generator: Sketch 52.3 (67297) - http://www.bohemiancoding.com/sketch -->
    <title>pastel3</title>
    <desc>Created with Sketch.</desc>
    <g id="Page-1" stroke="none" stroke-width="1" fill="none" fill-rule="evenodd">
        <g id="pastel3">
            <rect id="Rectangle-19" fill="#A5A038" x="4" y="0" width="1011" height="204"></rect>
            <path d="M107.276,88.8 L110.444,204 L46.508,204 L46.508,0.096 L136.076,0.096 L172.94,109.824 L174.38,109.824 L206.348,0.096 L298.796,0.096 L298.796,204 L232.268,204 L234.284,89.376 L232.556,89.088 L194.54,204 L146.156,204 L108.716,88.8 L107.276,88.8 Z M413.548,0.096 L486.412,0.096 L565.9,204 L491.308,204 L480.652,174.048 L415.852,174.048 L405.772,204 L333.196,204 L413.548,0.096 Z M448.972,71.232 L432.268,121.632 L465.388,121.632 L448.972,71.232 Z M600.3,204 L600.3,0.096 L676.332,0.096 C692.460081,0.096 707.867927,1.67998416 722.556,4.848 C737.244073,8.01601584 750.203944,13.4879611 761.436,21.264 C772.668056,29.0400389 781.643966,39.3599357 788.364,52.224 C795.084034,65.0880643 798.444,81.3119021 798.444,100.896 C798.444,118.752089 795.228032,134.207935 788.796,147.264 C782.363968,160.320065 773.772054,171.023958 763.02,179.376 C752.267946,187.728042 739.88407,193.91998 725.868,197.952 C711.85193,201.98402 697.260076,204 682.092,204 L600.3,204 Z M666.252,58.272 L666.252,145.248 L678.924,145.248 C695.052081,145.248 707.435957,141.744035 716.076,134.736 C724.716043,127.727965 729.036,116.25608 729.036,100.32 C729.036,87.0719338 724.716043,76.752037 716.076,69.36 C707.435957,61.967963 695.916072,58.272 681.516,58.272 L666.252,58.272 Z M845.843995,0.096 L986.099995,0.096 L986.099995,57.12 L910.355995,57.12 L910.355995,74.688 L981.491995,74.688 L981.491995,127.968 L910.355995,127.968 L910.355995,146.976 L990.995995,146.976 L990.995995,204 L845.843995,204 L845.843995,0.096 Z" id="MADE" fill="#CFCB7E"></path>
            <path d="M61.276,88.8 L64.444,204 L0.508,204 L0.508,0.096 L90.076,0.096 L126.94,109.824 L128.38,109.824 L160.348,0.096 L252.796,0.096 L252.796,204 L186.268,204 L188.284,89.376 L186.556,89.088 L148.54,204 L100.156,204 L62.716,88.8 L61.276,88.8 Z M367.548,0.096 L440.412,0.096 L519.9,204 L445.308,204 L434.652,174.048 L369.852,174.048 L359.772,204 L287.196,204 L367.548,0.096 Z M402.972,71.232 L386.268,121.632 L419.388,121.632 L402.972,71.232 Z M554.3,204 L554.3,0.096 L630.332,0.096 C646.460081,0.096 661.867927,1.67998416 676.556,4.848 C691.244073,8.01601584 704.203944,13.4879611 715.436,21.264 C726.668056,29.0400389 735.643966,39.3599357 742.364,52.224 C749.084034,65.0880643 752.444,81.3119021 752.444,100.896 C752.444,118.752089 749.228032,134.207935 742.796,147.264 C736.363968,160.320065 727.772054,171.023958 717.02,179.376 C706.267946,187.728042 693.88407,193.91998 679.868,197.952 C665.85193,201.98402 651.260076,204 636.092,204 L554.3,204 Z M620.252,58.272 L620.252,145.248 L632.924,145.248 C649.052081,145.248 661.435957,141.744035 670.076,134.736 C678.716043,127.727965 683.036,116.25608 683.036,100.32 C683.036,87.0719338 678.716043,76.752037 670.076,69.36 C661.435957,61.967963 649.916072,58.272 635.516,58.272 L620.252,58.272 Z M799.843995,0.096 L940.099995,0.096 L940.099995,57.12 L864.355995,57.12 L864.355995,74.688 L935.491995,74.688 L935.491995,127.968 L864.355995,127.968 L864.355995,146.976 L944.995995,146.976 L944.995995,204 L799.843995,204 L799.843995,0.096 Z" id="MADE" fill="#FFFCC6"></path>
        </g>
    </g>
</svg>