<?xml version="1.0" encoding="UTF-8"?>
<svg width="992px" height="204px" viewBox="0 0 992 204" version="1.1" xmlns="http://www.w3.org/2000/svg" xmlns:xlink="http://www.w3.org/1999/xlink">
    <!-- Generator: Sketch 52.3 (67297) - http://www.bohemiancoding.com/sketch -->
    <title>MADE + MADE 80</title>
    <desc>Created with Sketch.</desc>
    <g id="Page-1" stroke="none" stroke-width="1" fill="none" fill-rule="evenodd">
        <g id="MADE-+-MADE-80" transform="translate(-19.000000, -84.000000)">
            <path d="M125.776,172.8 L128.944,288 L65.008,288 L65.008,84.096 L154.576,84.096 L191.44,193.824 L192.88,193.824 L224.848,84.096 L317.296,84.096 L317.296,288 L250.768,288 L252.784,173.376 L251.056,173.088 L213.04,288 L164.656,288 L127.216,172.8 L125.776,172.8 Z M432.04804,84.096 L504.91204,84.096 L584.40004,288 L509.80804,288 L499.15204,258.048 L434.35204,258.048 L424.27204,288 L351.69604,288 L432.04804,84.096 Z M467.47204,155.232 L450.76804,205.632 L483.88804,205.632 L467.47204,155.232 Z M618.80008,288 L618.80008,84.096 L694.83208,84.096 C710.960161,84.096 726.368007,85.6799842 741.05608,88.848 C755.744154,92.0160158 768.704024,97.4879611 779.93608,105.264 C791.168136,113.040039 800.144047,123.359936 806.86408,136.224 C813.584114,149.088064 816.94408,165.311902 816.94408,184.896 C816.94408,202.752089 813.728112,218.207935 807.29608,231.264 C800.864048,244.320065 792.272134,255.023958 781.52008,263.376 C770.768026,271.728042 758.38415,277.91998 744.36808,281.952 C730.35201,285.98402 715.760156,288 700.59208,288 L618.80008,288 Z M684.75208,142.272 L684.75208,229.248 L697.42408,229.248 C713.552161,229.248 725.936037,225.744035 734.57608,218.736 C743.216123,211.727965 747.53608,200.25608 747.53608,184.32 C747.53608,171.071934 743.216123,160.752037 734.57608,153.36 C725.936037,145.967963 714.416152,142.272 700.01608,142.272 L684.75208,142.272 Z M865.74412,84.096 L1006.00012,84.096 L1006.00012,141.12 L930.25612,141.12 L930.25612,158.688 L1001.39212,158.688 L1001.39212,211.968 L930.25612,211.968 L930.25612,230.976 L1010.89612,230.976 L1010.89612,288 L865.74412,288 L865.74412,84.096 Z" id="MADE" fill="#C9C9C9"></path>
            <text id="MADE" font-family="AvenirNext-Heavy, Avenir Next" font-size="288" font-weight="600" letter-spacing="20" fill="#FF4228">
                <tspan x="0.5" y="288">MA</tspan>
                <tspan x="554.292" y="288" letter-spacing="18.5999947">DE</tspan>
            </text>
        </g>
    </g>
</svg>