<?xml version="1.0" encoding="UTF-8"?>
<svg width="990px" height="204px" viewBox="0 0 990 204" version="1.1" xmlns="http://www.w3.org/2000/svg" xmlns:xlink="http://www.w3.org/1999/xlink">
    <!-- Generator: Sketch 52.3 (67297) - http://www.bohemiancoding.com/sketch -->
    <title>MADE + MADE 92</title>
    <desc>Created with Sketch.</desc>
    <g id="Page-1" stroke="none" stroke-width="1" fill="none" fill-rule="evenodd">
        <g id="MADE-+-MADE-92">
            <path d="M106.276,88.8 L109.444,204 L45.508,204 L45.508,0.096 L135.076,0.096 L171.94,109.824 L173.38,109.824 L205.348,0.096 L297.796,0.096 L297.796,204 L231.268,204 L233.284,89.376 L231.556,89.088 L193.54,204 L145.156,204 L107.716,88.8 L106.276,88.8 Z M412.548,0.096 L485.412,0.096 L564.9,204 L490.308,204 L479.652,174.048 L414.852,174.048 L404.772,204 L332.196,204 L412.548,0.096 Z M447.972,71.232 L431.268,121.632 L464.388,121.632 L447.972,71.232 Z M599.3,204 L599.3,0.096 L675.332,0.096 C691.460081,0.096 706.867927,1.67998416 721.556,4.848 C736.244073,8.01601584 749.203944,13.4879611 760.436,21.264 C771.668056,29.0400389 780.643966,39.3599357 787.364,52.224 C794.084034,65.0880643 797.444,81.3119021 797.444,100.896 C797.444,118.752089 794.228032,134.207935 787.796,147.264 C781.363968,160.320065 772.772054,171.023958 762.02,179.376 C751.267946,187.728042 738.88407,193.91998 724.868,197.952 C710.85193,201.98402 696.260076,204 681.092,204 L599.3,204 Z M665.252,58.272 L665.252,145.248 L677.924,145.248 C694.052081,145.248 706.435957,141.744035 715.076,134.736 C723.716043,127.727965 728.036,116.25608 728.036,100.32 C728.036,87.0719338 723.716043,76.752037 715.076,69.36 C706.435957,61.967963 694.916072,58.272 680.516,58.272 L665.252,58.272 Z M844.843995,0.096 L985.099995,0.096 L985.099995,57.12 L909.355995,57.12 L909.355995,74.688 L980.491995,74.688 L980.491995,127.968 L909.355995,127.968 L909.355995,146.976 L989.995995,146.976 L989.995995,204 L844.843995,204 L844.843995,0.096 Z" id="MADE" fill="#F7888B"></path>
            <path d="M61.276,88.8 L64.444,204 L0.508,204 L0.508,0.096 L90.076,0.096 L126.94,109.824 L128.38,109.824 L160.348,0.096 L252.796,0.096 L252.796,204 L186.268,204 L188.284,89.376 L186.556,89.088 L148.54,204 L100.156,204 L62.716,88.8 L61.276,88.8 Z M367.548,0.096 L440.412,0.096 L519.9,204 L445.308,204 L434.652,174.048 L369.852,174.048 L359.772,204 L287.196,204 L367.548,0.096 Z M402.972,71.232 L386.268,121.632 L419.388,121.632 L402.972,71.232 Z M554.3,204 L554.3,0.096 L630.332,0.096 C646.460081,0.096 661.867927,1.67998416 676.556,4.848 C691.244073,8.01601584 704.203944,13.4879611 715.436,21.264 C726.668056,29.0400389 735.643966,39.3599357 742.364,52.224 C749.084034,65.0880643 752.444,81.3119021 752.444,100.896 C752.444,118.752089 749.228032,134.207935 742.796,147.264 C736.363968,160.320065 727.772054,171.023958 717.02,179.376 C706.267946,187.728042 693.88407,193.91998 679.868,197.952 C665.85193,201.98402 651.260076,204 636.092,204 L554.3,204 Z M620.252,58.272 L620.252,145.248 L632.924,145.248 C649.052081,145.248 661.435957,141.744035 670.076,134.736 C678.716043,127.727965 683.036,116.25608 683.036,100.32 C683.036,87.0719338 678.716043,76.752037 670.076,69.36 C661.435957,61.967963 649.916072,58.272 635.516,58.272 L620.252,58.272 Z M799.843995,0.096 L940.099995,0.096 L940.099995,57.12 L864.355995,57.12 L864.355995,74.688 L935.491995,74.688 L935.491995,127.968 L864.355995,127.968 L864.355995,146.976 L944.995995,146.976 L944.995995,204 L799.843995,204 L799.843995,0.096 Z" id="MADE" fill="#2E91D4"></path>
        </g>
    </g>
</svg>