<?xml version="1.0" encoding="UTF-8"?>
<svg width="1007px" height="212px" viewBox="0 0 1007 212" version="1.1" xmlns="http://www.w3.org/2000/svg" xmlns:xlink="http://www.w3.org/1999/xlink">
    <!-- Generator: Sketch 52.3 (67297) - http://www.bohemiancoding.com/sketch -->
    <title>MADE + MADE 73 + PRODUCTIONS</title>
    <desc>Created with Sketch.</desc>
    <defs>
        <linearGradient x1="50%" y1="0%" x2="50%" y2="100%" id="linearGradient-1">
            <stop stop-color="#00FFFE" offset="0%"></stop>
            <stop stop-color="#FF00FA" offset="100%"></stop>
        </linearGradient>
    </defs>
    <g id="Page-1" stroke="none" stroke-width="1" fill="none" fill-rule="evenodd">
        <g id="MADE-+-MADE-73-+-PRODUCTIONS" fill="url(#linearGradient-1)">
            <g id="MADE-+-MADE-73">
                <path d="M64.9240421,92.2823529 L68.2957932,212 L0.247726777,212 L0.247726777,0.0997647059 L95.5763243,0.0997647059 L134.811245,114.130824 L136.34386,114.130824 L170.367893,0.0997647059 L268.761718,0.0997647059 L268.761718,212 L197.954947,212 L200.100606,92.8809412 L198.26147,92.5816471 L157.800457,212 L106.304623,212 L66.4566562,92.2823529 L64.9240421,92.2823529 Z M390.894076,0.0997647059 L468.44435,0.0997647059 L553.044649,212 L473.655238,212 L462.313894,180.873412 L393.346259,180.873412 L382.61796,212 L305.374209,212 L390.894076,0.0997647059 Z M428.596384,74.0254118 L410.81806,126.401882 L446.068184,126.401882 L428.596384,74.0254118 Z M589.65714,212 L589.65714,0.0997647059 L670.579165,0.0997647059 C687.744529,0.0997647059 704.143336,1.74586589 719.776078,5.03811765 C735.40882,8.3303694 749.202209,14.0169008 761.156659,22.0978824 C773.111108,30.1788639 782.664307,40.9034626 789.816542,54.272 C796.968777,67.6405374 800.544841,84.5006041 800.544841,104.852706 C800.544841,123.409034 797.122037,139.470991 790.276327,153.039059 C783.430616,166.607127 774.28611,177.73078 762.842534,186.410353 C751.398958,195.089926 738.218609,201.524685 723.30109,205.714824 C708.383571,209.904962 692.853237,212 676.709621,212 L589.65714,212 Z M659.850866,60.5571765 L659.850866,150.944 L673.33787,150.944 C690.503234,150.944 703.683583,147.302625 712.879314,140.019765 C722.075045,132.736905 726.672841,120.815142 726.672841,104.254118 C726.672841,90.4865194 722.075045,79.7619208 712.879314,72.08 C703.683583,64.3980792 691.422793,60.5571765 676.096576,60.5571765 L659.850866,60.5571765 Z M852.483473,0.0997647059 L1001.76009,0.0997647059 L1001.76009,59.36 L921.144585,59.36 L921.144585,77.6169412 L996.855722,77.6169412 L996.855722,132.986353 L921.144585,132.986353 L921.144585,152.739765 L1006.97098,152.739765 L1006.97098,212 L852.483473,212 L852.483473,0.0997647059 Z" id="MADE"></path>
            </g>
        </g>
    </g>
</svg>