<?xml version="1.0" encoding="UTF-8"?>
<svg width="945px" height="204px" viewBox="0 0 945 204" version="1.1" xmlns="http://www.w3.org/2000/svg" xmlns:xlink="http://www.w3.org/1999/xlink">
    <!-- Generator: Sketch 52.3 (67297) - http://www.bohemiancoding.com/sketch -->
    <title>MADE 7</title>
    <desc>Created with Sketch.</desc>
    <g id="Page-1" stroke="none" stroke-width="1" fill="none" fill-rule="evenodd">
        <path d="M60.768,88.704 L63.936,203.904 L0,203.904 L0,0 L89.568,0 L126.432,109.728 L127.872,109.728 L159.84,0 L252.288,0 L252.288,203.904 L185.76,203.904 L187.776,89.28 L186.048,88.992 L148.032,203.904 L99.648,203.904 L62.208,88.704 L60.768,88.704 Z M367.04,0 L439.904,0 L519.392,203.904 L444.8,203.904 L434.144,173.952 L369.344,173.952 L359.264,203.904 L286.688,203.904 L367.04,0 Z M402.464,71.136 L385.76,121.536 L418.88,121.536 L402.464,71.136 Z M553.792,203.904 L553.792,0 L629.824,0 C645.952081,0 661.359927,1.58398416 676.048,4.752 C690.736073,7.92001584 703.695944,13.3919611 714.928,21.168 C726.160056,28.9440389 735.135966,39.2639357 741.856,52.128 C748.576034,64.9920643 751.936,81.2159021 751.936,100.8 C751.936,118.656089 748.720032,134.111935 742.288,147.168 C735.855968,160.224065 727.264054,170.927958 716.512,179.28 C705.759946,187.632042 693.37607,193.82398 679.36,197.856 C665.34393,201.88802 650.752076,203.904 635.584,203.904 L553.792,203.904 Z M619.744,58.176 L619.744,145.152 L632.416,145.152 C648.544081,145.152 660.927957,141.648035 669.568,134.64 C678.208043,127.631965 682.528,116.16008 682.528,100.224 C682.528,86.9759338 678.208043,76.656037 669.568,69.264 C660.927957,61.871963 649.408072,58.176 635.008,58.176 L619.744,58.176 Z M799.335995,0 L939.591995,0 L939.591995,57.024 L863.847995,57.024 L863.847995,74.592 L934.983995,74.592 L934.983995,127.872 L863.847995,127.872 L863.847995,146.88 L944.487995,146.88 L944.487995,203.904 L799.335995,203.904 L799.335995,0 Z" id="MADE-7" fill="#6F0A0A"></path>
    </g>
</svg>