<?xml version="1.0" encoding="UTF-8"?>
<svg width="954px" height="205px" viewBox="0 0 954 205" version="1.1" xmlns="http://www.w3.org/2000/svg" xmlns:xlink="http://www.w3.org/1999/xlink">
    <!-- Generator: Sketch 52.3 (67297) - http://www.bohemiancoding.com/sketch -->
    <title>MADE + MADE 78</title>
    <desc>Created with Sketch.</desc>
    <defs>
        <linearGradient x1="50%" y1="0%" x2="50%" y2="100%" id="linearGradient-1">
            <stop stop-color="#00FFFE" offset="0%"></stop>
            <stop stop-color="#FF00FA" offset="100%"></stop>
        </linearGradient>
    </defs>
    <g id="Page-1" stroke="none" stroke-width="1" fill="none" fill-rule="evenodd">
        <g id="MADE-+-MADE-78">
            <path d="M68.776,89.8 L71.944,205 L8.008,205 L8.008,1.096 L97.576,1.096 L134.44,110.824 L135.88,110.824 L167.848,1.096 L260.296,1.096 L260.296,205 L193.768,205 L195.784,90.376 L194.056,90.088 L156.04,205 L107.656,205 L70.216,89.8 L68.776,89.8 Z M375.04804,1.096 L447.91204,1.096 L527.40004,205 L452.80804,205 L442.15204,175.048 L377.35204,175.048 L367.27204,205 L294.69604,205 L375.04804,1.096 Z M410.47204,72.232 L393.76804,122.632 L426.88804,122.632 L410.47204,72.232 Z M561.80008,205 L561.80008,1.096 L637.83208,1.096 C653.960161,1.096 669.368007,2.67998416 684.05608,5.848 C698.744154,9.01601584 711.704024,14.4879611 722.93608,22.264 C734.168136,30.0400389 743.144047,40.3599357 749.86408,53.224 C756.584114,66.0880643 759.94408,82.3119021 759.94408,101.896 C759.94408,119.752089 756.728112,135.207935 750.29608,148.264 C743.864048,161.320065 735.272134,172.023958 724.52008,180.376 C713.768026,188.728042 701.38415,194.91998 687.36808,198.952 C673.35201,202.98402 658.760156,205 643.59208,205 L561.80008,205 Z M627.75208,59.272 L627.75208,146.248 L640.42408,146.248 C656.552161,146.248 668.936037,142.744035 677.57608,135.736 C686.216123,128.727965 690.53608,117.25608 690.53608,101.32 C690.53608,88.0719338 686.216123,77.752037 677.57608,70.36 C668.936037,62.967963 657.416152,59.272 643.01608,59.272 L627.75208,59.272 Z M808.74412,1.096 L949.00012,1.096 L949.00012,58.12 L873.25612,58.12 L873.25612,75.688 L944.39212,75.688 L944.39212,128.968 L873.25612,128.968 L873.25612,147.976 L953.89612,147.976 L953.89612,205 L808.74412,205 L808.74412,1.096 Z" id="MADE" fill="url(#linearGradient-1)"></path>
            <path d="M64.444,204 L0.508,204 C0.508,204 940.225407,135.798781 940.225407,102.048003 C940.225407,67.8307809 0.508,0.096 0.508,0.096 L90.076,0.096 L126.94,109.824 L160.348,0.096 L252.796,0.096 L252.796,204 L186.268,204 L188.284,89.376 L148.54,204 L100.156,204 L62.716,88.8 L64.444,204 Z M367.548,0.096 L440.412,0.096 L519.9,204 L445.308,204 L434.652,174.048 L369.852,174.048 L359.772,204 L287.196,204 L367.548,0.096 Z M402.972,71.232 L386.268,121.632 L419.388,121.632 L402.972,71.232 Z M554.3,204 L554.3,0.096 L630.332,0.096 C646.460081,0.096 661.867927,1.67998416 676.556,4.848 C691.244073,8.01601584 704.203944,13.4879611 715.436,21.264 C726.668056,29.0400389 735.643966,39.3599357 742.364,52.224 C749.084034,65.0880643 752.444,81.3119021 752.444,100.896 C752.444,118.752089 749.228032,134.207935 742.796,147.264 C736.363968,160.320065 727.772054,171.023958 717.02,179.376 C706.267946,187.728042 693.88407,193.91998 679.868,197.952 C665.85193,201.98402 651.260076,204 636.092,204 L554.3,204 Z M620.252,58.272 L620.252,145.248 L632.924,145.248 C649.052081,145.248 661.435957,141.744035 670.076,134.736 C678.716043,127.727965 683.036,116.25608 683.036,100.32 C683.036,87.0719338 678.716043,76.752037 670.076,69.36 C661.435957,61.967963 649.916072,58.272 635.516,58.272 L620.252,58.272 Z M799.843995,0.096 L940.099995,0.096 L940.099995,57.12 L864.355995,57.12 L864.355995,74.688 L935.491995,74.688 L935.491995,127.968 L864.355995,127.968 L864.355995,146.976 L944.995995,146.976 L944.995995,204 L799.843995,204 L799.843995,0.096 Z" id="MADE" fill="#1A1A1A"></path>
        </g>
    </g>
</svg>